<?xml version="1.0" standalone="no"?>
<!DOCTYPE svg PUBLIC "-//W3C//DTD SVG 20010904//EN"
 "http://www.w3.org/TR/2001/REC-SVG-20010904/DTD/svg10.dtd">
<svg version="1.0" xmlns="http://www.w3.org/2000/svg"
 width="745.000000pt" height="801.000000pt" viewBox="0 0 745.000000 801.000000"
 preserveAspectRatio="xMidYMid meet">

<g transform="translate(0.000000,801.000000) scale(0.100000,-0.100000)"
fill="#000000" stroke="none">
<path d="M4570 6469 c0 -20 -20 -30 -47 -23 -25 6 -183 -22 -196 -35 -8 -8 -6
-11 5 -11 9 0 20 5 23 10 3 6 18 10 33 10 20 0 23 -3 14 -12 -9 -9 -8 -16 5
-30 15 -17 15 -18 -5 -18 -11 0 -24 5 -28 11 -3 6 -15 9 -25 6 -10 -3 -22 -1
-25 4 -9 16 -42 10 -87 -15 -24 -14 -66 -37 -93 -51 -52 -27 -136 -101 -155
-137 -10 -19 -9 -20 12 -15 23 6 23 5 5 -8 -11 -8 -25 -15 -32 -15 -7 0 -15
-4 -18 -8 -7 -11 56 -2 72 10 8 7 12 7 12 0 0 -6 -10 -14 -22 -17 -13 -4 -38
-23 -55 -43 -35 -39 -43 -37 -17 3 13 20 14 25 2 25 -7 0 -21 -12 -29 -27 -22
-38 -53 -142 -45 -150 3 -3 6 -1 6 6 0 7 5 9 10 6 6 -4 7 -11 4 -17 -4 -6 -1
-13 5 -17 6 -4 9 -15 5 -24 -9 -25 -27 -21 -19 4 5 15 3 20 -5 17 -7 -2 -14
-22 -15 -43 -2 -22 -8 -76 -14 -120 -6 -44 -12 -89 -14 -99 -2 -21 -5 -21 153
-11 61 3 668 -13 803 -21 l107 -7 0 41 c0 35 -3 40 -17 35 -15 -5 -16 -3 -6 7
10 11 15 11 29 0 14 -12 18 -11 34 10 18 24 18 25 1 32 -24 9 -33 34 -16 48 7
6 15 23 18 38 6 30 55 177 68 204 5 10 9 33 9 52 0 26 -5 36 -20 41 -11 3 -20
14 -20 23 1 16 2 16 14 0 7 -10 16 -18 20 -18 9 0 -4 91 -14 105 -4 6 -13 27
-19 48 -7 20 -19 37 -27 37 -8 0 -14 8 -14 18 -1 55 -113 107 -249 116 -72 5
-98 11 -107 24 -12 15 -13 16 -14 1z m5 -100 c-14 -6 -2 -7 35 -3 41 5 52 3
44 -5 -14 -15 -38 -17 -87 -7 -42 8 -41 26 1 25 24 0 25 -1 7 -10z m299 -9
c25 -12 46 -26 46 -32 0 -6 -11 -3 -25 6 -13 9 -33 16 -44 16 -26 0 -51 10
-51 21 0 14 24 11 74 -11z m-534 0 c8 -1 2 -6 -15 -11 -16 -5 -36 -7 -43 -4
-8 3 -10 0 -6 -7 5 -7 2 -9 -9 -5 -9 3 -18 1 -20 -6 -3 -9 -8 -9 -17 0 -11 10
-7 15 21 27 19 8 43 13 54 11 11 -2 27 -4 35 -5z m170 -70 c13 -8 13 -10 -2
-10 -9 0 -20 5 -23 10 -8 13 5 13 25 0z m257 -182 c-3 -8 -6 -5 -6 6 -1 11 2
17 5 13 3 -3 4 -12 1 -19z m83 -41 c11 -4 9 -6 -5 -6 -22 -1 -45 16 -45 33 0
5 8 2 18 -6 9 -9 24 -18 32 -21z m-14 -72 c6 -19 8 -35 4 -35 -4 0 -11 11 -14
24 -3 13 -9 32 -13 43 -3 10 -2 15 2 10 5 -4 14 -23 21 -42z m69 -5 c3 -5 1
-10 -4 -10 -6 0 -11 5 -11 10 0 6 2 10 4 10 3 0 8 -4 11 -10z m-35 -82 c0 -6
-6 -5 -15 2 -8 7 -15 14 -15 16 0 2 7 1 15 -2 8 -4 15 -11 15 -16z m-130 -9
c0 -5 -4 -9 -10 -9 -5 0 -10 7 -10 16 0 8 5 12 10 9 6 -3 10 -10 10 -16z
m-155 -29 c3 -6 -1 -7 -9 -4 -18 7 -21 14 -7 14 6 0 13 -4 16 -10z m190 0 c3
-5 2 -10 -4 -10 -5 0 -13 5 -16 10 -3 6 -2 10 4 10 5 0 13 -4 16 -10z m-829
-35 c-6 -24 -36 -36 -36 -14 0 5 5 7 10 4 6 -3 11 -1 11 4 1 6 3 16 4 21 1 6
3 13 4 17 0 3 4 4 7 0 4 -3 4 -18 0 -32z m609 26 c3 -5 2 -12 -3 -15 -5 -3 -9
1 -9 9 0 17 3 19 12 6z m-535 -61 c0 -6 5 -8 10 -5 6 3 10 -4 10 -17 0 -14 3
-19 8 -11 16 25 27 -3 21 -52 -3 -27 -7 -44 -7 -36 -1 7 -8 11 -16 8 -9 -4
-13 3 -14 21 -2 49 -5 60 -18 55 -8 -3 -15 8 -20 31 -3 20 -10 39 -15 42 -5 3
-7 10 -3 15 6 11 44 -32 44 -51z m415 20 c3 -6 -1 -7 -9 -4 -18 7 -21 14 -7
14 6 0 13 -4 16 -10z m175 -12 c0 -19 -2 -20 -10 -8 -13 19 -13 30 0 30 6 0
10 -10 10 -22z m-630 -23 c0 -5 -5 -3 -10 5 -5 8 -10 20 -10 25 0 6 5 3 10 -5
5 -8 10 -19 10 -25z m128 -10 c-1 -47 -12 -68 -20 -37 -4 16 9 82 16 82 2 0 4
-20 4 -45z m102 24 c0 -6 -4 -7 -10 -4 -5 3 -10 11 -10 16 0 6 5 7 10 4 6 -3
10 -11 10 -16z m268 -14 c-3 -3 -9 2 -12 12 -6 14 -5 15 5 6 7 -7 10 -15 7
-18z m170 0 c-3 -3 -9 2 -12 12 -6 14 -5 15 5 6 7 -7 10 -15 7 -18z m-466 -40
c2 -19 0 -35 -4 -35 -4 0 -8 16 -8 35 0 19 2 35 4 35 2 0 6 -16 8 -35z m35 3
c-3 -8 -6 -5 -6 6 -1 11 2 17 5 13 3 -3 4 -12 1 -19z m33 -24 c0 -8 -5 -12
-10 -9 -6 4 -8 11 -5 16 9 14 15 11 15 -7z m680 -4 c0 -5 -5 -10 -11 -10 -5 0
-7 5 -4 10 3 6 8 10 11 10 2 0 4 -4 4 -10z"/>
<path d="M5080 6210 c0 -5 5 -10 11 -10 5 0 7 5 4 10 -3 6 -8 10 -11 10 -2 0
-4 -4 -4 -10z"/>
<path d="M5104 6186 c-11 -6 -19 -17 -16 -24 2 -7 8 -10 13 -6 5 3 9 -4 9 -16
0 -17 -4 -20 -21 -15 -17 6 -20 3 -17 -12 2 -10 11 -17 20 -17 9 1 19 -5 22
-13 3 -8 2 -11 -3 -8 -5 3 -12 -4 -16 -15 -3 -11 -11 -19 -18 -17 -6 1 -12 -7
-14 -18 -1 -11 0 -14 3 -7 8 17 27 15 21 -3 -4 -8 -2 -17 3 -20 16 -10 11 -28
-6 -21 -8 3 -12 2 -9 -4 3 -5 2 -17 -3 -27 -10 -17 6 -43 27 -43 16 0 10 -61
-6 -67 -17 -7 -17 -23 0 -23 12 0 36 43 50 90 3 11 8 8 15 -10 6 -17 6 -27 -2
-33 -12 -8 21 -40 34 -32 5 3 11 -3 14 -12 5 -13 9 -14 19 -4 9 9 9 14 0 19
-20 12 2 36 27 29 13 -3 28 0 36 8 18 18 18 25 -1 25 -8 0 -15 -5 -15 -12 0
-6 -3 -9 -6 -6 -3 4 -1 16 5 27 12 21 16 20 60 -7 3 -1 -6 -13 -19 -27 -13
-14 -20 -28 -16 -32 4 -4 11 -1 16 7 5 8 12 11 16 7 4 -3 1 -13 -6 -22 -10
-12 -10 -15 4 -15 9 0 16 8 16 17 0 26 11 8 15 -26 3 -22 0 -31 -10 -31 -8 0
-15 5 -15 10 0 6 -5 10 -12 10 -6 0 -8 -3 -5 -7 4 -3 2 -12 -4 -19 -7 -8 -7
-14 1 -19 5 -3 10 2 10 11 0 14 3 15 12 6 9 -9 7 -16 -10 -32 -19 -18 -22 -19
-22 -4 0 10 -3 14 -6 11 -4 -4 -19 2 -34 13 -42 30 -47 24 -11 -11 25 -23 30
-34 21 -44 -8 -9 -7 -14 4 -18 8 -3 17 -1 20 6 2 7 5 2 5 -10 1 -13 -4 -23
-10 -23 -6 0 -9 -9 -6 -20 3 -10 0 -21 -7 -23 -8 -3 -8 -8 1 -17 9 -10 13 -5
18 24 6 27 13 38 32 42 30 8 53 -10 35 -28 -9 -9 -4 -17 20 -35 18 -13 27 -23
22 -23 -6 0 -15 5 -22 12 -9 9 -12 8 -12 -6 0 -11 8 -24 17 -31 10 -7 18 -24
18 -37 0 -14 5 -22 13 -20 8 1 11 -2 8 -7 -4 -5 7 -19 24 -31 16 -12 30 -18
30 -13 0 14 20 -21 20 -36 0 -11 -4 -10 -13 4 -10 13 -16 15 -21 6 -5 -7 2
-20 16 -31 12 -11 28 -24 35 -30 7 -5 17 -10 22 -10 5 0 13 -10 16 -21 4 -12
10 -17 14 -12 10 15 40 23 46 13 4 -6 -3 -10 -14 -10 -12 0 -21 -4 -21 -10 0
-13 6 -13 30 0 20 11 23 9 128 -87 31 -29 60 -53 65 -53 4 0 7 -7 7 -15 0 -8
-8 -15 -17 -15 -13 0 -8 -10 20 -36 21 -20 41 -34 44 -31 7 8 -22 37 -36 37
-6 0 -11 7 -11 15 0 24 16 17 50 -21 24 -27 28 -39 19 -45 -10 -6 -10 -11 0
-23 8 -9 19 -16 25 -16 6 0 4 6 -6 13 -15 12 -15 15 3 37 l18 25 -6 -23 c-4
-18 1 -30 21 -49 15 -14 30 -22 34 -18 4 4 1 10 -5 12 -21 8 -15 23 8 20 12
-1 24 5 27 13 5 13 3 13 -11 1 -13 -10 -17 -10 -17 -1 0 6 9 14 20 17 11 3 20
10 20 15 0 5 -4 6 -10 3 -5 -3 -10 -1 -10 4 0 6 9 11 20 11 13 0 20 7 20 20 0
21 -15 27 -25 10 -3 -5 -16 -15 -28 -21 -14 -6 -8 3 16 25 38 37 46 52 24 43
-6 -2 -17 1 -24 8 -9 10 -8 17 8 31 10 9 19 23 19 31 0 7 9 13 20 13 17 0 20
-7 22 -47 3 -88 -1 -156 -10 -162 -5 -3 -12 -19 -16 -36 -9 -41 -9 -44 -8 -97
2 -35 6 -48 17 -48 8 0 15 7 15 16 0 8 5 12 10 9 6 -3 10 -1 10 4 0 6 -6 11
-14 11 -24 0 -30 39 -9 55 10 9 13 14 6 15 -18 0 -16 32 2 56 12 16 16 17 24
4 6 -8 13 -11 16 -8 9 8 -4 68 -14 68 -5 0 -3 18 2 39 6 22 14 38 18 35 4 -2
10 2 13 8 3 7 3 -29 1 -81 -3 -53 -11 -101 -18 -109 -10 -13 -9 -15 6 -9 19 7
23 -8 5 -20 -7 -4 -15 -19 -16 -33 -6 -41 -2 -123 6 -129 4 -4 15 -22 25 -41
l17 -35 -24 30 c-35 41 -43 25 -11 -23 14 -22 25 -46 24 -54 -3 -16 12 -71 21
-78 10 -8 32 -111 37 -177 2 -33 -3 -102 -11 -152 -9 -50 -16 -111 -16 -135 0
-25 -3 -47 -7 -49 -5 -3 -7 33 -5 79 1 46 -2 84 -7 84 -5 0 -7 9 -4 20 4 13
-2 29 -16 44 -12 12 -18 26 -14 30 4 4 -1 4 -11 0 -16 -6 -18 -4 -14 14 4 13
0 26 -10 34 -14 11 -15 9 -9 -21 4 -18 7 -38 7 -43 0 -5 5 -6 10 -3 6 3 10 -1
10 -9 0 -28 -16 -17 -37 27 -18 36 -19 46 -8 61 10 14 11 24 3 42 -12 26 -28
23 -28 -6 0 -10 -7 -20 -15 -22 -12 -2 -11 -10 5 -46 15 -34 18 -51 11 -80 -6
-24 -9 -29 -10 -14 -1 12 -5 22 -11 22 -5 0 -7 13 -3 30 5 29 4 30 -28 31 -29
0 -31 2 -13 9 25 10 35 32 24 49 -5 9 -10 10 -14 2 -12 -19 -46 -12 -56 12 -8
19 -9 20 -9 3 -1 -11 -4 -16 -8 -13 -3 4 -12 2 -20 -5 -7 -6 -16 -8 -20 -4 -3
3 -1 6 5 6 7 0 12 5 12 10 0 6 -9 10 -20 10 -24 0 -26 13 -4 30 24 21 53 88
47 111 -5 18 -3 20 16 14 19 -6 21 -3 21 30 0 20 4 34 8 31 4 -2 9 6 10 19 1
22 -16 48 -19 28 -1 -4 -3 -21 -5 -38 -2 -16 -10 -35 -18 -41 -8 -6 -23 -33
-33 -60 -14 -36 -24 -50 -41 -52 -12 -2 -22 1 -22 6 0 12 30 38 30 26 0 -12
20 19 20 31 0 6 -4 4 -9 -3 -6 -10 -10 -7 -13 13 -4 17 -2 25 6 22 7 -3 18 9
26 27 7 17 18 34 24 38 6 5 1 8 -11 8 -16 0 -23 -6 -23 -20 0 -11 -5 -17 -13
-15 -8 4 -18 -13 -29 -47 -14 -46 -17 -50 -23 -30 -5 14 -13 21 -21 18 -8 -3
-14 1 -14 9 0 20 -44 47 -64 39 -9 -3 -16 -1 -16 6 0 6 4 9 9 6 15 -10 20 22
5 34 -8 7 -14 10 -14 6 0 -6 -45 32 -86 72 -8 8 -23 11 -34 7 -24 -8 -26 7 -4
26 13 11 17 10 25 -4 11 -18 49 -24 49 -7 0 5 -9 15 -20 22 -23 14 -26 38 -8
56 9 9 9 12 -3 13 -21 2 -22 2 -49 -5 l-25 -7 25 20 25 21 -40 -3 c-28 -1 -39
2 -37 11 1 7 -5 12 -14 10 -9 -2 -19 3 -21 10 -7 19 21 14 49 -8 27 -21 45
-16 26 7 -6 7 -7 17 -3 21 4 4 10 1 12 -5 3 -7 12 -13 20 -13 15 0 1 19 -56
75 -14 13 -19 25 -13 29 6 3 16 0 24 -7 7 -7 21 -16 32 -20 10 -4 16 -13 13
-21 -4 -10 0 -12 15 -8 13 3 16 7 8 12 -9 6 -9 9 1 13 9 3 3 7 -13 12 -15 4
-29 13 -32 21 -3 8 -15 14 -26 14 -11 0 -20 6 -20 14 0 8 -10 22 -22 31 -23
17 -23 17 10 10 20 -4 32 -3 32 4 0 17 18 13 40 -9 24 -24 25 -30 5 -30 -20 0
-19 -10 2 -25 14 -11 19 -10 29 4 7 9 16 12 21 7 4 -5 2 -11 -4 -13 -23 -8
-14 -18 18 -19 39 -2 58 -26 26 -35 -14 -4 -7 -6 20 -6 l41 1 -24 23 c-31 29
-30 37 4 29 26 -6 26 -6 8 9 -23 17 -36 19 -36 5 0 -5 -7 -10 -16 -10 -10 0
-14 6 -10 15 4 10 -1 15 -14 15 -11 0 -20 5 -20 11 0 7 11 8 32 4 l32 -7 -29
24 c-29 25 -28 48 2 48 11 0 8 6 -10 20 -28 22 -37 25 -37 10 0 -5 8 -10 18
-10 16 -1 16 -1 -1 -11 -14 -8 -17 -18 -12 -36 4 -18 2 -24 -7 -20 -7 2 -12
10 -11 16 2 6 -4 11 -13 11 -9 0 -27 11 -40 25 -13 14 -28 25 -34 25 -5 0 -10
5 -10 10 0 14 28 12 33 -2 3 -10 7 -10 20 0 9 8 20 11 26 8 15 -10 61 12 61
29 0 19 -16 20 -23 1 -7 -18 -43 -10 -51 11 -3 8 -2 22 4 31 8 15 10 15 11 -3
1 -11 1 -23 0 -27 -2 -12 9 -9 24 6 12 12 12 15 -1 20 -8 3 -12 11 -9 16 5 8
11 8 19 1 7 -6 16 -8 19 -4 15 14 5 19 -38 19 -39 -1 -44 -3 -39 -19 5 -16 2
-18 -16 -12 -19 6 -21 4 -15 -14 4 -15 2 -21 -9 -21 -28 0 -26 18 3 48 28 27
29 31 15 51 -8 11 -22 21 -30 21 -8 0 -14 5 -14 10 0 16 -27 12 -34 -6 -3 -8
-11 -12 -18 -8 -8 5 -4 13 11 26 17 13 19 18 8 18 -8 0 -27 14 -40 30 -14 17
-33 30 -43 30 -16 0 -16 -1 -1 -18 24 -26 21 -39 -3 -17 -13 12 -18 25 -14 40
4 16 -1 24 -23 33 -24 11 -26 10 -10 -1 25 -20 22 -40 -5 -32 -15 6 -20 4 -16
-7 3 -7 2 -31 -2 -53 l-8 -40 -1 48 c0 26 -5 47 -10 47 -5 0 -8 -17 -8 -37 1
-21 -2 -58 -7 -82 -6 -32 -5 -42 4 -36 7 4 13 -1 17 -14 3 -12 12 -21 19 -21
8 0 14 -7 14 -15 0 -9 -6 -12 -15 -9 -21 9 -19 -25 3 -42 9 -7 25 -14 35 -14
11 0 17 -8 17 -22 0 -19 -2 -20 -17 -6 -28 24 -53 30 -53 13 0 -8 7 -15 15
-15 8 0 17 -11 21 -25 5 -20 9 -23 20 -14 11 9 14 7 14 -10 0 -15 6 -21 21
-21 11 0 17 -4 14 -10 -9 -15 -36 -12 -57 7 -26 23 -22 9 6 -22 20 -22 25 -23
36 -10 15 19 40 20 40 2 0 -8 10 -19 23 -26 12 -6 14 -9 5 -7 -26 8 -30 -9 -8
-34 11 -13 17 -26 14 -29 -4 -3 -9 0 -11 7 -3 6 -9 12 -14 12 -4 0 -6 -7 -3
-15 8 -19 -6 -19 -31 1 -14 11 -16 18 -7 21 19 7 14 19 -8 19 -14 0 -20 -7
-20 -24 0 -22 -2 -23 -17 -11 -13 11 -17 11 -20 2 -3 -7 -9 -13 -15 -13 -15 0
-2 71 14 82 10 6 10 10 -2 18 -22 14 -32 12 -29 -7 3 -22 -10 -63 -20 -63 -13
0 -70 31 -77 41 -3 5 0 17 7 25 10 12 8 17 -7 29 -25 19 -44 19 -44 0 0 -8 9
-15 20 -15 11 0 20 -4 20 -10 0 -5 -11 -10 -25 -10 -24 0 -46 25 -38 46 5 16
-23 36 -44 31 -14 -3 -12 -6 11 -16 16 -6 26 -14 23 -17 -6 -6 -60 9 -115 32
-18 8 -51 14 -72 14 -22 0 -40 4 -40 9 0 10 -25 20 -63 25 -12 2 -29 6 -37 9
-18 7 -307 42 -480 58 -69 6 -232 9 -363 7 -159 -2 -237 0 -237 7 0 14 -38 17
-46 4 -4 -6 -11 -6 -19 1 -10 8 -15 8 -21 -1 -4 -7 -3 -9 3 -6 6 4 14 0 17 -9
8 -22 7 -31 -2 -17 -4 7 -17 14 -27 16 -11 2 -28 8 -39 12 -10 5 -21 4 -25 -2
-3 -6 -33 -17 -66 -25 -90 -23 -163 -62 -252 -133 -131 -105 -233 -214 -306
-327 -10 -16 -24 -28 -33 -28 -16 0 -44 -23 -44 -35 0 -4 -7 -23 -17 -42 -12
-26 -13 -37 -4 -42 8 -5 9 -15 3 -32 -5 -13 -13 -55 -17 -94 -4 -38 -11 -75
-17 -82 -5 -7 -7 -17 -3 -23 4 -6 -4 -10 -19 -10 -25 0 -25 0 -22 89 3 86 2
89 -21 100 -36 17 -43 14 -59 -24 -11 -28 -20 -35 -42 -35 -15 0 -38 -8 -51
-17 -23 -16 -25 -15 -48 11 -18 22 -21 31 -13 47 6 10 15 19 20 19 6 0 10 11
10 25 0 37 -36 55 -121 59 -59 2 -83 -1 -117 -17 -39 -20 -55 -37 -32 -37 15
0 12 -36 -5 -50 -11 -9 -19 -9 -28 -2 -7 6 -40 14 -73 17 -32 3 -75 11 -95 17
-44 12 -75 -1 -89 -38 -9 -22 -14 -24 -44 -19 -25 5 -35 3 -39 -9 -10 -24 -34
-19 -41 9 -4 16 -19 30 -43 40 -21 9 -45 23 -54 31 -14 13 -21 13 -41 3 -13
-6 -25 -15 -28 -19 -3 -4 -18 -13 -35 -21 -16 -8 -31 -20 -31 -27 -3 -22 -4
-23 -25 -11 -13 6 -19 17 -16 28 2 10 -3 33 -12 51 -12 26 -23 34 -46 35 -16
1 -36 -3 -43 -8 -11 -9 -35 -6 -89 9 -17 5 -31 -3 -60 -34 -36 -37 -44 -41
-138 -57 -55 -10 -104 -21 -109 -26 -5 -4 -21 -2 -35 5 -40 21 -140 15 -157
-9 -12 -16 -18 -18 -34 -7 -24 15 -91 16 -139 1 -29 -8 -45 -7 -81 6 -25 9
-61 21 -80 27 -19 5 -45 19 -58 31 -19 18 -38 22 -123 25 -68 3 -104 1 -114
-8 -9 -7 -46 -11 -102 -10 -110 3 -153 1 -164 -6 -5 -3 -9 -65 -9 -137 l0
-132 60 0 59 0 8 35 9 35 64 0 c63 0 65 -1 68 -27 3 -23 -1 -28 -17 -28 -20 0
-20 -1 -4 -34 9 -19 25 -38 37 -41 20 -7 20 -8 -3 -12 -14 -3 -35 -11 -47 -19
-15 -10 -24 -12 -29 -5 -3 6 -14 11 -25 11 -13 0 -17 -5 -13 -20 5 -20 -11
-28 -22 -10 -4 6 -18 5 -38 -3 -26 -11 -36 -11 -57 0 -36 19 -50 16 -50 -10 0
-30 51 -52 72 -31 15 15 142 26 318 28 58 1 110 4 116 8 6 4 21 0 33 -8 19
-14 22 -22 16 -58 -4 -30 -3 -37 4 -26 6 8 11 30 11 48 0 39 38 64 65 42 18
-15 21 -91 3 -87 -16 3 -23 -42 -9 -56 8 -8 11 -8 11 1 0 7 5 12 10 12 12 0
13 -37 1 -44 -5 -3 -14 1 -21 10 -11 12 -15 12 -21 2 -7 -11 -12 -11 -30 0
-25 16 -28 13 -35 -24 -6 -33 -21 -54 -40 -54 -7 0 -15 -9 -19 -19 -3 -11 -15
-23 -25 -26 -23 -7 -35 -58 -27 -114 6 -44 -4 -66 -26 -58 -10 4 -22 -3 -31
-19 -19 -28 -52 -32 -59 -6 -3 9 -8 39 -12 66 -6 41 -3 51 16 72 l22 24 -23
25 c-13 14 -31 25 -39 25 -9 0 -22 9 -29 20 -7 11 -22 20 -33 20 -17 0 -20 -5
-17 -25 3 -14 2 -25 -2 -25 -4 0 -4 -21 0 -47 13 -92 -1 -181 -24 -145 -11 19
-14 145 -3 162 8 14 8 25 -1 45 -7 14 -12 35 -12 46 0 12 -11 24 -28 31 l-27
11 25 7 c24 6 24 7 5 17 -11 6 -40 13 -65 16 -25 3 -50 13 -57 23 -12 16 -13
15 -13 -8 0 -25 21 -42 46 -37 5 1 16 1 24 0 13 -1 13 -3 0 -10 -8 -6 -18 -7
-22 -5 -5 3 -17 2 -28 -1 -19 -6 -20 -16 -20 -273 l0 -267 485 2 c592 2 634 4
657 33 13 17 24 20 50 15 18 -3 123 -7 233 -10 403 -8 607 -15 615 -20 14 -8
167 -6 265 4 50 5 136 10 193 10 80 1 104 4 108 16 5 11 13 10 42 -10 68 -45
148 -82 253 -116 73 -24 96 -35 78 -37 -21 -2 -28 -10 -33 -35 -4 -19 -2 -33
4 -35 5 -2 10 -12 10 -21 0 -26 46 -72 64 -65 9 3 16 1 16 -5 0 -6 21 -22 48
-34 26 -13 46 -29 44 -35 -1 -7 11 -30 27 -52 30 -42 32 -87 4 -76 -8 3 -11 2
-8 -3 3 -5 -4 -16 -16 -24 -13 -9 -16 -17 -10 -22 18 -10 13 -32 -9 -38 -12
-3 -20 -14 -20 -26 0 -12 -4 -21 -10 -21 -5 0 -10 -4 -10 -9 0 -5 9 -7 20 -4
25 7 26 -13 3 -39 -9 -10 -14 -18 -11 -18 5 0 14 8 119 106 43 40 66 53 114
64 33 8 68 14 78 12 9 -1 17 5 17 13 0 8 7 15 15 15 8 0 15 -4 15 -10 0 -5 5
-10 10 -10 6 0 4 13 -5 30 -34 66 -9 129 80 199 44 35 65 59 70 80 17 79 200
319 290 381 53 36 136 57 168 43 42 -20 42 -54 -4 -161 -53 -126 -81 -229 -69
-251 5 -10 5 -23 -1 -32 -5 -7 -9 -28 -9 -45 0 -17 -7 -37 -15 -44 -8 -7 -15
-20 -15 -30 0 -9 -3 -20 -7 -24 -4 -4 -8 -13 -8 -19 0 -7 -11 -34 -24 -60 -28
-56 -20 -75 23 -56 21 10 34 10 60 1 18 -7 44 -12 59 -12 15 0 27 -4 27 -9 0
-12 63 -24 130 -26 49 -1 55 -4 58 -24 6 -38 -12 -46 -55 -25 -29 14 -60 19
-128 19 -49 0 -103 -3 -120 -7 -20 -5 -14 0 20 17 28 14 41 24 30 23 -11 -1
-26 1 -33 6 -17 10 -102 -31 -102 -50 0 -8 8 -14 18 -14 13 -1 10 -6 -13 -27
-16 -15 -29 -32 -27 -40 5 -24 -29 -27 -86 -8 -44 16 -66 32 -115 87 -58 65
-97 86 -97 53 0 -35 43 -86 119 -143 25 -19 78 -65 116 -102 39 -38 95 -91
125 -119 52 -49 54 -52 36 -66 -21 -16 -102 -13 -231 10 -44 8 -102 17 -130
20 -27 3 -63 8 -80 10 -91 16 -198 0 -217 -31 -8 -12 -33 -12 -104 1 -37 6
-42 5 -47 -14 -3 -12 0 -21 6 -22 7 -1 17 -2 22 -3 72 -13 98 -21 141 -41 49
-23 324 -115 344 -115 6 0 39 -13 73 -30 35 -16 69 -30 76 -30 37 0 161 -76
161 -99 0 -5 -30 -15 -67 -22 -37 -8 -76 -22 -85 -31 -22 -22 -28 -23 -28 -2
0 8 -5 12 -11 9 -6 -4 -8 -13 -5 -21 3 -8 1 -14 -4 -14 -6 0 -10 6 -10 13 0 9
-2 9 -8 0 -4 -6 -14 -11 -22 -11 -61 4 -64 -10 -10 -46 23 -15 38 -31 35 -36
-4 -6 5 -10 20 -10 25 0 31 -2 93 -33 19 -9 38 -17 44 -17 6 0 45 -21 87 -46
42 -26 98 -55 126 -65 27 -9 51 -22 53 -28 2 -6 11 -11 20 -11 23 -1 52 -24
52 -42 0 -16 -60 -78 -75 -78 -6 0 -3 5 5 10 12 8 10 10 -11 10 -14 0 -31 -6
-37 -12 -10 -10 -15 -10 -21 1 -13 21 -44 5 -38 -19 4 -16 0 -20 -18 -20 -13
0 -27 -4 -30 -10 -3 -5 -14 -10 -24 -10 -10 0 -28 -11 -41 -25 -13 -14 -30
-25 -38 -25 -10 0 -13 -9 -10 -30 6 -38 -7 -49 -16 -15 -6 23 -8 24 -22 10 -9
-8 -19 -13 -24 -10 -5 3 -12 0 -15 -5 -5 -7 -12 -5 -21 7 -13 17 -14 16 -11
-7 1 -16 -3 -25 -13 -26 -36 -3 -41 -5 -35 -14 4 -6 -5 -10 -19 -10 -14 0 -26
-4 -26 -10 0 -14 -33 -13 -48 2 -9 9 -12 9 -12 0 0 -7 -7 -12 -15 -12 -9 0
-12 6 -9 18 4 10 -4 5 -17 -11 -26 -30 -54 -29 -62 1 -4 15 -5 15 -6 0 0 -10
-7 -18 -15 -18 -9 0 -13 8 -10 22 4 22 4 22 -5 2 -10 -23 -37 -38 -52 -28 -15
9 0 24 18 17 10 -4 14 -2 11 7 -2 8 -16 17 -31 21 -22 6 -27 4 -27 -11 0 -10
-7 -21 -16 -24 -8 -3 -12 -2 -9 4 14 23 -21 8 -41 -18 -18 -22 -25 -25 -35
-15 -11 11 -10 13 2 13 14 0 43 49 34 58 -9 9 -37 -9 -42 -28 -3 -11 -9 -20
-14 -20 -13 0 -11 14 3 28 9 9 7 12 -9 12 -22 0 -53 -24 -53 -41 0 -5 11 -11
25 -15 14 -3 25 -11 25 -18 0 -6 21 -25 48 -43 39 -25 51 -29 67 -20 11 6 27
10 35 8 8 -2 12 0 9 3 -7 7 44 66 56 66 4 0 4 -7 1 -16 -3 -8 -1 -24 5 -35 7
-15 7 -24 -1 -34 -7 -8 -9 -19 -5 -24 9 -15 48 28 41 46 -10 24 4 34 26 19 11
-8 27 -12 35 -9 10 4 14 0 11 -13 -2 -13 3 -19 15 -18 12 1 17 -5 17 -22 0
-17 -4 -22 -15 -18 -12 5 -15 -3 -15 -41 0 -38 -3 -46 -16 -41 -9 3 -12 2 -9
-4 4 -6 -1 -24 -9 -41 -15 -30 -14 -34 7 -72 16 -29 19 -41 10 -44 -22 -8 -14
-32 12 -39 14 -3 25 -12 25 -20 0 -8 8 -14 18 -14 14 -1 12 -3 -6 -13 -26 -15
-19 -27 16 -27 34 0 102 -21 102 -32 0 -4 -4 -8 -10 -8 -5 0 18 -28 51 -62 45
-46 59 -68 56 -84 -3 -17 0 -21 12 -17 10 3 9 0 -3 -8 -15 -9 -21 -9 -24 -1
-2 7 -8 10 -12 7 -5 -3 -7 -12 -3 -21 4 -10 14 -13 37 -9 23 5 39 0 62 -17 50
-37 94 -82 94 -95 0 -7 9 -18 19 -25 15 -9 17 -15 9 -26 -8 -9 -8 -16 0 -24 6
-6 8 -16 6 -23 -3 -7 -1 -16 5 -20 20 -12 11 -27 -11 -22 -22 6 -67 -17 -56
-28 3 -3 28 0 57 6 49 10 54 9 86 -16 20 -14 40 -23 45 -20 5 3 18 1 27 -4 17
-10 17 -10 1 -11 -21 0 -24 -18 -5 -26 7 -2 68 13 135 35 121 40 203 63 290
82 76 16 81 17 220 33 74 8 139 20 146 25 7 6 46 13 87 16 41 3 97 11 124 18
32 8 127 12 260 11 183 0 221 -3 300 -23 121 -30 179 -48 250 -77 33 -13 64
-24 68 -24 5 0 39 -19 75 -42 50 -33 61 -44 45 -46 -11 -2 -44 7 -74 18 -36
15 -76 22 -117 22 -51 0 -62 2 -58 14 7 19 -9 18 -41 -3 -19 -13 -28 -14 -31
-5 -10 32 -58 -5 -60 -47 -1 -18 3 -22 18 -18 11 3 18 0 17 -6 -1 -6 8 -13 21
-15 12 -2 22 -9 22 -16 0 -7 44 -37 98 -67 113 -62 184 -110 229 -153 17 -17
44 -43 60 -59 l28 -27 553 0 552 0 0 985 c0 672 -3 985 -10 985 -14 0 -62 -31
-77 -50 -7 -8 -19 -29 -28 -46 -8 -18 -40 -66 -70 -108 -30 -43 -55 -80 -55
-84 0 -4 -14 -25 -30 -46 -17 -22 -30 -46 -30 -53 0 -7 -4 -13 -8 -13 -5 0
-18 -21 -30 -48 -23 -48 -42 -83 -53 -92 -3 -3 -16 -25 -29 -50 -14 -25 -33
-55 -44 -67 -11 -13 -16 -23 -12 -23 5 0 3 -7 -4 -15 -13 -16 -52 -83 -73
-125 -6 -14 -17 -31 -24 -38 -7 -7 -13 -20 -13 -28 0 -8 -4 -14 -8 -14 -4 0
-23 -30 -42 -67 -19 -38 -42 -77 -51 -88 -9 -11 -29 -45 -45 -75 -16 -30 -32
-57 -36 -58 -5 -2 -8 -10 -8 -18 0 -8 -5 -14 -11 -14 -5 0 -7 -5 -4 -10 3 -6
-1 -13 -9 -16 -9 -3 -16 -14 -16 -24 0 -11 -4 -21 -9 -24 -5 -3 -18 -23 -29
-43 -72 -137 -88 -165 -106 -182 -12 -10 -38 -35 -60 -55 -21 -20 -43 -36 -48
-36 -7 0 -6 -5 1 -14 18 -22 -9 -26 -50 -8 -18 8 -37 15 -40 14 -4 -1 -5 7 -2
16 6 25 -51 142 -95 192 -31 37 -35 48 -33 91 2 59 -13 91 -73 146 -44 40 -63
82 -32 70 9 -4 22 10 37 41 13 25 32 55 42 66 9 11 17 26 17 33 0 7 4 13 8 13
5 0 19 24 32 52 13 29 30 59 37 66 7 7 13 18 13 23 0 5 15 32 33 61 18 29 43
73 55 98 13 25 36 70 53 100 16 30 29 60 29 66 0 6 7 17 15 24 8 7 12 16 10
21 -3 4 0 11 7 16 8 4 28 40 47 78 18 39 36 72 40 75 8 6 123 236 124 247 0 4
7 14 14 21 7 7 13 20 13 28 0 8 5 14 10 14 6 0 10 8 10 19 0 10 7 24 15 31 8
7 15 18 15 24 0 26 52 60 108 72 31 7 47 13 35 13 -12 1 -24 5 -28 10 -6 11
30 25 43 17 4 -2 14 0 22 5 27 17 -5 25 -92 23 -46 -1 -101 2 -123 6 -22 5
-53 12 -70 15 -16 4 -39 8 -50 10 -11 2 -20 4 -20 5 0 1 -11 3 -25 5 -14 2
-54 11 -90 19 -36 9 -75 16 -88 16 -35 0 -123 -31 -116 -41 3 -5 -2 -9 -11 -9
-8 0 -20 11 -24 24 -5 13 -17 26 -26 30 -40 15 -176 -1 -183 -22 -2 -8 9 -12
37 -12 62 0 57 -15 -11 -34 -58 -16 -125 -65 -101 -73 6 -2 71 17 144 42 73
25 135 45 137 45 12 0 -14 -59 -40 -92 -26 -34 -34 -38 -60 -33 -30 7 -131
-23 -122 -36 7 -11 -45 -49 -60 -43 -8 3 -16 -5 -20 -18 -5 -14 -9 -18 -13
-10 -7 17 -26 15 -19 -3 3 -8 1 -15 -4 -15 -6 0 -10 5 -10 12 0 6 -7 4 -18 -5
-10 -10 -27 -17 -38 -17 -20 0 -58 -36 -50 -48 6 -10 -15 -34 -42 -50 -13 -7
-22 -8 -22 -2 0 5 -11 10 -25 10 -14 0 -25 1 -26 3 0 1 -3 23 -6 49 -6 58 13
80 101 115 88 36 168 96 210 158 41 59 99 174 110 218 5 23 10 26 31 21 31 -8
78 3 70 16 -4 6 7 8 28 5 18 -3 44 -1 58 4 18 7 20 10 6 10 -10 1 -15 6 -12
11 9 15 -51 12 -113 -4 -49 -13 -52 -13 -48 2 38 130 66 322 66 453 0 91 3
106 30 161 17 33 30 66 30 74 0 8 36 88 79 177 l80 163 78 3 c43 1 96 4 118 6
38 4 143 5 335 1 47 0 88 3 92 9 4 6 46 9 100 7 66 -3 101 1 120 11 29 14 27
27 -2 27 -10 0 -23 6 -29 14 -10 11 -8 16 6 24 15 9 12 11 -20 17 -29 6 -37
12 -37 29 0 25 36 51 68 47 43 -5 22 25 -30 42 -186 61 -414 88 -605 73 -73
-6 -83 -5 -83 9 0 9 9 19 20 22 11 3 18 8 15 12 -2 4 8 14 23 23 21 12 76 17
262 22 129 4 309 9 399 13 122 4 162 3 157 -6 -4 -6 -13 -8 -19 -4 -7 4 0 -8
15 -26 20 -23 26 -39 22 -56 -7 -28 11 -65 31 -65 18 0 18 1 4 -39 -10 -27
-15 -32 -35 -27 -12 3 -26 1 -29 -5 -4 -6 -18 -8 -31 -5 -18 5 -24 2 -24 -9 0
-9 -11 -20 -24 -24 -30 -12 -39 -36 -23 -62 17 -28 53 -35 170 -31 l57 2 0 66
c0 36 -4 63 -9 60 -15 -10 -28 17 -30 62 -1 36 3 45 19 49 28 7 24 71 -5 95
l-20 18 23 6 c21 6 22 11 22 108 0 96 -1 103 -22 114 -28 14 -125 39 -242 62
-48 10 -93 23 -99 29 -13 13 -97 15 -97 2 0 -5 -30 -12 -67 -16 -155 -16 -351
-82 -492 -167 -73 -44 -96 -45 -97 -6 -1 15 -6 33 -11 40 -18 22 -53 148 -53
189 0 30 5 42 24 55 14 8 23 21 20 28 -6 15 65 19 83 4 14 -11 93 -1 93 12 0
5 13 2 29 -6 24 -12 40 -13 93 -3 123 22 127 22 134 5 8 -20 24 -20 60 -1 39
20 51 19 57 -6 3 -11 11 -19 19 -18 23 4 68 -13 68 -25 0 -15 42 -56 57 -56
14 0 43 44 43 65 0 15 -14 18 -85 19 -20 1 -31 7 -33 18 -4 21 27 31 89 26 40
-3 44 -5 44 -30 1 -15 3 -30 6 -33 9 -8 66 59 61 73 -2 7 1 12 7 12 15 0 14
-23 -1 -38 -9 -9 -7 -12 9 -12 17 0 19 5 15 26 -3 19 -1 25 7 20 8 -6 10 0 5
18 -8 32 18 46 42 21 9 -9 29 -19 45 -22 16 -3 29 -9 29 -14 0 -5 11 -9 25 -9
18 0 25 -5 25 -19 0 -43 39 -36 43 8 1 15 8 21 24 21 30 0 29 18 -2 32 -15 7
-25 20 -25 31 0 31 -42 87 -65 87 -11 0 -42 11 -70 25 -57 28 -82 31 -110 11
-11 -7 -29 -15 -40 -17 -11 -3 -20 -11 -21 -19 -2 -35 -5 -40 -24 -40 -21 0
-40 27 -40 59 0 23 -10 27 -27 10 -5 -5 -30 -9 -54 -7 -41 3 -44 5 -54 41 -11
39 -25 40 -25 2 0 -28 -18 -43 -60 -51 -25 -5 -35 -3 -42 9 -14 26 -34 20 -48
-14 -13 -31 -26 -34 -71 -15 -10 4 -23 1 -32 -8 -13 -13 -23 -14 -70 -4 -37 8
-58 18 -64 30 -8 17 -10 17 -43 -6 l-35 -24 -31 24 c-18 13 -50 26 -72 30 -43
7 -52 20 -52 79 0 87 -72 459 -98 510 -8 16 -25 59 -37 95 -50 142 -68 186
-85 201 -9 8 -20 24 -24 35 -4 10 -24 39 -46 64 -34 39 -39 42 -40 23 0 -13 5
-23 10 -23 13 0 13 -40 0 -60 -8 -13 -10 -12 -10 3 0 10 -4 15 -10 12 -5 -3
-10 0 -10 8 0 10 -7 13 -20 10 -11 -3 -20 -13 -20 -22 0 -14 -2 -14 -10 -1 -6
10 -6 16 0 18 6 2 7 9 3 15 -4 7 0 8 13 3 15 -6 17 -5 6 6 -10 10 -17 7 -37
-17 -14 -17 -22 -22 -19 -12 4 11 1 17 -9 17 -9 0 -17 6 -20 13 -2 6 -2 2 -1
-10 2 -12 -3 -28 -11 -37 -18 -18 -20 -49 -2 -44 6 3 13 14 15 26 3 21 3 21
23 1 10 -10 19 -24 19 -31 0 -6 -6 -4 -13 7 -13 17 -14 17 -29 -4 -14 -20 -18
-21 -37 -9 -12 7 -21 16 -21 20 0 4 -7 5 -16 1 -14 -5 -15 -1 -9 28 4 19 4 30
-1 26 -5 -5 -9 -12 -9 -15 0 -4 -4 -13 -9 -21 -6 -10 -6 -16 1 -18 7 -3 7 -11
-1 -28 -13 -29 -21 -31 -30 -9 -3 8 -10 13 -15 10 -5 -3 -12 1 -15 10 -3 8
-10 13 -15 10 -5 -3 -12 1 -15 10 -8 22 -8 26 4 19 6 -3 10 2 10 12 -1 14 -5
12 -24 -11 -13 -16 -30 -26 -37 -23 -10 4 -9 6 4 6 9 1 17 4 17 7 0 11 -48 52
-54 46 -3 -3 -6 0 -6 6 0 15 13 15 28 0 9 -9 12 -8 12 5 0 9 7 17 16 17 10 0
14 6 11 14 -3 8 -1 17 6 19 7 2 8 8 4 13 -4 5 -12 2 -17 -5 -7 -12 -14 -10
-42 7 -18 12 -28 22 -21 22 6 0 19 3 27 6 12 5 15 2 10 -10 -3 -9 -1 -16 5
-16 6 0 11 12 11 26 0 19 -4 25 -15 20 -8 -3 -15 0 -15 7 0 7 -10 18 -22 26
-13 7 -20 10 -16 6 4 -5 3 -14 -4 -22 -16 -19 -2 -29 18 -12 15 12 17 12 12
-1 -8 -24 -38 -24 -64 1 -28 26 -30 35 -8 43 12 4 14 1 9 -14 -4 -11 -2 -20 4
-20 6 0 11 9 11 20 0 11 7 23 15 26 8 4 15 13 15 22 0 13 -3 12 -14 -4 -19
-25 -31 -12 -16 16 6 12 9 25 5 28 -3 3 -8 -4 -12 -16 -6 -25 -11 -26 -36 -8
-17 13 -17 15 3 50 17 32 18 39 6 51 -7 8 -16 11 -20 8 -6 -6 -10 13 -7 31 1
5 -5 6 -14 3 -8 -4 -15 -2 -15 3 0 6 -4 10 -10 10 -14 0 -12 -28 3 -33 6 -2 8
-8 4 -13 -4 -5 -12 -2 -18 6 -7 13 -10 13 -18 1 -6 -9 -11 -10 -15 -2 -4 6 -4
11 1 11 4 0 13 11 20 25 16 35 6 31 -34 -12 -27 -29 -31 -31 -19 -11 9 15 12
29 7 33 -5 3 -12 -1 -14 -7 -3 -7 -6 -3 -6 9 -1 12 -9 24 -21 28 -21 7 -28 25
-10 25 6 0 10 -5 10 -11 0 -5 5 -7 10 -4 6 3 10 2 10 -4 0 -6 7 -8 15 -5 10 4
15 0 15 -12 0 -14 2 -16 13 -5 10 10 8 14 -6 22 -9 6 -15 14 -12 20 4 5 0 9
-8 9 -8 0 -18 10 -22 23 -4 13 -8 17 -12 10 -8 -21 -23 -15 -23 10 0 13 -14
34 -35 51 -19 16 -35 37 -35 47 0 24 -11 28 -36 15z m50 -126 l7 -35 -16 34
c-17 37 -20 60 -6 46 5 -6 12 -26 15 -45z m-29 -20 c3 -5 1 -10 -4 -10 -6 0
-11 5 -11 10 0 6 2 10 4 10 3 0 8 -4 11 -10z m50 -30 c3 -6 -1 -17 -9 -26 -15
-14 -16 -13 -16 10 0 26 13 35 25 16z m-13 -82 c-9 -9 -12 -7 -12 12 0 19 3
21 12 12 9 -9 9 -15 0 -24z m238 -44 c0 -21 -36 -58 -44 -46 -4 7 0 15 8 18 9
3 16 15 16 26 0 10 -4 16 -10 13 -5 -3 -10 1 -10 9 0 14 3 14 20 4 11 -7 20
-18 20 -24z m-40 -13 c0 -14 -18 -23 -31 -15 -8 4 -7 9 2 15 18 11 29 11 29 0z
m25 -111 c3 -5 1 -10 -4 -10 -6 0 -11 5 -11 10 0 6 2 10 4 10 3 0 8 -4 11 -10z
m-20 -29 c3 -5 1 -12 -5 -16 -5 -3 -10 1 -10 9 0 18 6 21 15 7z m15 -51 c0 -5
-7 -7 -15 -4 -8 4 -15 8 -15 10 0 2 7 4 15 4 8 0 15 -4 15 -10z m31 -3 c-6 -8
-8 -17 -4 -20 11 -12 23 -8 23 8 0 9 6 12 16 8 15 -6 15 -8 -2 -20 -10 -7 -24
-13 -31 -13 -20 0 -28 30 -12 41 20 12 23 11 10 -4z m60 -58 c-9 -22 -10 -22
-10 -3 -1 11 2 24 6 27 12 12 14 0 4 -24z m33 5 c3 -8 2 -12 -4 -9 -6 3 -10
10 -10 16 0 14 7 11 14 -7z m-104 -5 c0 -8 6 -7 18 2 15 13 16 12 3 -4 -10
-13 -17 -15 -27 -6 -17 14 -18 19 -4 19 6 0 10 -5 10 -11z m50 -35 c0 -2 -7
-4 -15 -4 -8 0 -15 4 -15 10 0 5 7 7 15 4 8 -4 15 -8 15 -10z m27 -20 c-3 -3
-12 -4 -19 -1 -8 3 -5 6 6 6 11 1 17 -2 13 -5z m383 -8 c0 -3 -4 -8 -10 -11
-5 -3 -10 -1 -10 4 0 6 5 11 10 11 6 0 10 -2 10 -4z m-353 -12 c-3 -3 -12 -4
-19 -1 -8 3 -5 6 6 6 11 1 17 -2 13 -5z m-47 -14 c0 -5 -2 -10 -4 -10 -3 0 -8
5 -11 10 -3 6 -1 10 4 10 6 0 11 -4 11 -10z m30 -20 c0 -5 -2 -10 -4 -10 -3 0
-8 5 -11 10 -3 6 -1 10 4 10 6 0 11 -4 11 -10z m70 -4 c0 -3 -4 -8 -10 -11 -5
-3 -10 -1 -10 4 0 6 5 11 10 11 6 0 10 -2 10 -4z m135 -26 c-8 -9 -12 -20 -8
-25 5 -4 3 -5 -4 -2 -6 4 -14 1 -16 -5 -3 -7 -6 -3 -6 10 -1 12 4 22 9 22 6 0
10 7 10 15 0 9 6 12 15 8 14 -5 14 -7 0 -23z m130 20 c3 -5 1 -10 -4 -10 -6 0
-11 5 -11 10 0 6 2 10 4 10 3 0 8 -4 11 -10z m-227 -64 c12 -11 22 -24 22 -30
0 -6 -5 -3 -11 7 -6 9 -14 15 -19 12 -4 -3 -11 2 -14 11 -3 8 -9 14 -13 11 -5
-2 -21 10 -38 26 l-30 30 40 -24 c22 -13 50 -32 63 -43z m-8 43 c0 -5 -4 -9
-10 -9 -5 0 -10 7 -10 16 0 8 5 12 10 9 6 -3 10 -10 10 -16z m404 5 c5 -14 4
-15 -9 -4 -17 14 -19 20 -6 20 5 0 12 -7 15 -16z m-227 -26 c-3 -8 -6 -5 -6 6
-1 11 2 17 5 13 3 -3 4 -12 1 -19z m-152 2 c3 -5 1 -10 -4 -10 -6 0 -11 5 -11
10 0 6 2 10 4 10 3 0 8 -4 11 -10z m298 -25 c-3 -9 -8 -14 -10 -11 -3 3 -2 9
2 15 9 16 15 13 8 -4z m116 -55 c1 -13 0 -13 -9 0 -5 8 -9 24 -9 35 l0 20 9
-20 c5 -11 9 -27 9 -35z m-695 25 c3 -8 1 -15 -4 -15 -6 0 -10 7 -10 15 0 8 2
15 4 15 2 0 6 -7 10 -15z m216 -40 c0 -3 -9 -1 -20 5 -11 6 -20 18 -20 27 0
14 3 13 20 -5 11 -12 20 -24 20 -27z m-185 5 c3 -5 1 -10 -4 -10 -6 0 -11 5
-11 10 0 6 2 10 4 10 3 0 8 -4 11 -10z m-39 -37 c-11 -11 -19 6 -11 24 8 17 8
17 12 0 3 -10 2 -21 -1 -24z m101 31 c-3 -3 -12 -4 -19 -1 -8 3 -5 6 6 6 11 1
17 -2 13 -5z m607 -10 c23 -9 20 -23 -4 -17 -11 3 -20 9 -20 14 0 11 3 11 24
3z m-634 -8 c0 -11 -19 -15 -25 -6 -3 5 1 10 9 10 9 0 16 -2 16 -4z m185 -6
c3 -5 2 -10 -4 -10 -5 0 -13 5 -16 10 -3 6 -2 10 4 10 5 0 13 -4 16 -10z
m-285 -33 c1 -21 2 -21 21 6 11 15 25 25 30 21 13 -8 11 -24 -2 -24 -7 0 -18
-8 -25 -17 -13 -17 -15 -17 -29 1 -17 22 -20 50 -5 41 6 -3 10 -16 10 -28z
m119 4 c-15 -5 -22 6 -14 19 6 9 10 9 16 -1 5 -8 4 -15 -2 -18z m71 9 c0 -5
-4 -10 -9 -10 -6 0 -13 5 -16 10 -3 6 1 10 9 10 9 0 16 -4 16 -10z m30 -21 c0
-11 -4 -17 -10 -14 -5 3 -10 13 -10 21 0 8 5 14 10 14 6 0 10 -9 10 -21z m560
7 c0 -3 -4 -8 -10 -11 -5 -3 -10 -1 -10 4 0 6 5 11 10 11 6 0 10 -2 10 -4z
m-690 -16 c0 -5 -4 -10 -10 -10 -5 0 -10 5 -10 10 0 6 5 10 10 10 6 0 10 -4
10 -10z m65 0 c3 -5 -1 -10 -10 -10 -9 0 -13 5 -10 10 3 6 8 10 10 10 2 0 7
-4 10 -10z m-109 -37 c-10 -10 -19 5 -10 18 6 11 8 11 12 0 2 -7 1 -15 -2 -18z
m70 0 c-10 -10 -19 5 -10 18 6 11 8 11 12 0 2 -7 1 -15 -2 -18z m591 5 c-3 -8
-6 -5 -6 6 -1 11 2 17 5 13 3 -3 4 -12 1 -19z m63 18 c0 -3 -4 -8 -10 -11 -5
-3 -10 -1 -10 4 0 6 5 11 10 11 6 0 10 -2 10 -4z m-570 -16 c0 -5 -7 -10 -15
-10 -8 0 -15 5 -15 10 0 6 7 10 15 10 8 0 15 -4 15 -10z m-110 -20 c0 -11 -4
-20 -9 -20 -5 0 -11 9 -14 20 -3 13 0 20 9 20 8 0 14 -9 14 -20z m104 -32 c6
-5 1 -8 -11 -8 -25 0 -26 1 -16 26 5 14 8 15 11 3 3 -7 10 -17 16 -21z m66 0
c0 -5 -12 -7 -27 -7 -17 1 -21 3 -10 6 9 2 17 12 17 21 0 15 2 15 10 2 5 -8
10 -18 10 -22z m540 12 c8 -15 8 -20 -3 -20 -7 0 -13 9 -14 20 -1 11 0 20 2
20 2 0 9 -9 15 -20z m-740 -14 c0 -7 10 -17 23 -21 12 -3 17 -9 10 -11 -13 -6
-63 24 -63 37 0 5 7 9 15 9 8 0 15 -6 15 -14z m89 -16 c6 0 11 -4 11 -10 0 -5
-6 -10 -14 -10 -8 0 -16 -7 -20 -15 -3 -10 1 -15 14 -15 22 0 35 -16 20 -25
-5 -3 -20 3 -32 15 -13 12 -31 19 -40 16 -26 -6 -22 3 5 13 29 11 31 41 3 42
-21 0 -21 1 -1 9 13 5 24 3 31 -6 6 -8 16 -14 23 -14z m-1425 -7 c11 4 16 1
16 -11 1 -15 2 -15 15 2 13 17 15 17 15 4 0 -9 -4 -20 -10 -23 -5 -3 -10 -14
-9 -23 0 -11 3 -12 6 -4 6 16 23 15 23 -2 0 -22 38 -7 46 18 4 11 13 30 21 41
14 19 14 18 8 -14 -5 -22 -4 -31 3 -27 6 3 14 1 17 -5 4 -6 -2 -13 -14 -16
-11 -3 -18 -9 -15 -14 3 -5 10 -7 15 -4 10 7 12 -44 3 -69 -3 -9 -11 -13 -16
-10 -6 4 -5 9 3 14 9 6 7 16 -9 41 -18 28 -22 31 -28 16 -3 -9 -4 -26 -1 -38
4 -15 1 -19 -11 -17 -9 2 -19 14 -23 28 -6 23 -7 23 -8 3 -1 -28 -21 -73 -43
-97 -10 -11 -18 -25 -18 -31 0 -19 63 -44 115 -46 28 -1 62 -9 77 -17 22 -13
32 -13 53 -4 32 15 85 16 85 2 0 -5 19 -10 41 -10 23 0 59 -5 80 -11 29 -9 42
-9 53 0 11 9 15 9 19 -1 4 -10 7 -11 18 0 7 6 22 12 33 12 20 -1 21 -1 2 -15
-21 -16 -19 -17 39 -30 16 -4 36 -12 44 -18 22 -19 118 -45 144 -40 14 3 28 0
32 -7 5 -8 10 -8 21 1 11 9 14 9 14 0 0 -7 4 -10 9 -7 15 10 71 -6 64 -17 -4
-6 8 -8 35 -5 28 4 42 2 46 -7 2 -7 20 -16 38 -20 18 -4 36 -13 40 -19 5 -7 8
-7 8 3 0 12 12 5 79 -45 6 -5 -23 -64 -32 -64 -5 0 -5 -5 -1 -12 4 -6 3 -8 -3
-5 -6 4 -16 0 -22 -7 -10 -11 -7 -18 11 -30 l22 -16 -21 0 c-12 0 -33 -5 -46
-11 -21 -10 -24 -17 -23 -67 1 -52 -1 -57 -24 -62 l-25 -6 23 -8 c12 -4 23
-12 23 -17 1 -5 2 -15 3 -21 0 -7 11 -14 24 -16 26 -4 29 -17 6 -26 -8 -3 -12
-10 -9 -16 3 -5 -3 -10 -15 -10 -12 0 -19 -4 -15 -9 3 -5 -3 -11 -12 -14 -15
-3 -14 -6 7 -14 23 -9 21 -11 -23 -17 -25 -4 -49 -11 -52 -17 -8 -12 -65 -12
-65 0 0 5 6 12 13 14 6 3 2 6 -10 6 -12 1 -24 -3 -27 -8 -3 -5 -109 -9 -235
-10 -126 0 -233 -1 -238 -3 -4 -1 -27 2 -51 6 -31 6 -52 4 -76 -8 -94 -44
-282 -41 -426 8 -166 56 -550 144 -510 117 21 -14 -30 -14 -90 0 -59 14 -239
26 -242 17 -2 -4 -19 -4 -38 2 -19 5 -74 11 -122 13 -134 5 -117 17 28 19 82
1 101 3 54 5 -102 5 -104 6 -85 43 9 17 14 39 12 48 -3 12 -5 11 -6 -5 0 -12
-6 -25 -11 -28 -7 -4 -10 2 -8 17 5 31 17 50 29 43 5 -4 9 1 9 9 0 9 4 16 9
16 5 0 11 7 14 14 4 11 1 13 -11 9 -9 -4 -20 -11 -24 -17 -5 -7 -8 -4 -8 6 0
9 9 20 20 23 21 7 28 25 10 25 -14 0 -13 27 2 36 8 5 9 2 5 -10 -5 -13 -1 -19
13 -23 11 -3 20 -13 20 -22 0 -14 2 -14 10 -1 12 18 13 31 3 27 -5 -1 -8 3 -8
8 0 6 6 9 13 9 15 -2 16 13 1 18 -9 3 -9 9 0 26 9 18 9 21 -3 16 -8 -3 -17
-12 -20 -20 -7 -19 -26 -18 -26 1 0 8 4 15 9 15 5 0 9 6 8 13 -1 39 4 58 15
51 7 -4 8 -3 4 5 -4 7 11 32 39 63 25 28 44 56 42 62 -6 14 121 115 171 137
47 21 126 41 175 44 29 2 37 0 33 -11 -7 -17 -4 -17 31 -2 15 6 40 25 54 41
20 23 26 26 26 12 0 -9 -13 -30 -29 -46 -16 -16 -25 -29 -19 -29 21 0 82 72
76 89 -6 21 29 61 55 61 10 0 21 -8 23 -17 4 -15 6 -15 12 4 6 18 14 21 41 19
19 -1 34 1 34 6 0 4 4 8 9 8 16 0 21 -31 9 -53 -10 -19 -9 -20 4 -9 9 7 18 26
22 42 3 17 11 30 19 30 7 0 18 5 25 12 17 17 82 18 82 2 0 -7 -5 -16 -10 -19
-6 -4 -8 -11 -5 -16 4 -5 17 3 30 19 13 15 27 23 31 19 5 -4 4 -11 -1 -15 -15
-11 -37 -53 -31 -60 3 -3 6 0 6 6 0 7 7 12 15 12 8 0 15 3 15 8 0 4 9 18 20
32 l20 25 -7 -49 c-5 -37 -3 -47 6 -42 7 4 11 15 10 24 -4 44 2 86 10 73 5 -8
16 -11 25 -8z m93 -5 c-3 -8 -6 -5 -6 6 -1 11 2 17 5 13 3 -3 4 -12 1 -19z
m183 -3 c0 -9 -6 -12 -16 -8 -13 5 -13 7 -2 14 17 11 18 11 18 -6z m30 -16 c0
-11 -8 -28 -17 -37 -16 -16 -16 -16 -8 3 4 11 8 28 9 38 1 24 16 21 16 -4z
m50 -10 c0 -11 5 -17 10 -14 6 3 10 -3 10 -14 0 -12 5 -21 11 -21 5 0 7 -4 4
-10 -10 -17 -23 -11 -28 13 -2 12 -5 3 -6 -21 0 -24 -5 -41 -10 -37 -5 3 -7
20 -4 39 3 18 1 36 -5 40 -12 7 -4 46 9 46 5 0 9 -9 9 -21z m1124 -4 c30 -28
32 -35 10 -35 -8 0 -13 4 -10 8 3 5 -6 15 -19 22 -13 7 -22 17 -19 22 7 11 8
11 38 -17z m-1219 -38 c-8 -69 -13 -87 -29 -112 -22 -34 -29 -32 -21 8 5 24 4
28 -4 17 -16 -22 -13 -4 5 38 19 41 20 47 22 81 2 19 5 21 17 11 8 -7 13 -24
10 -43z m181 27 c-3 -8 -1 -14 4 -14 5 0 10 -9 12 -20 3 -18 4 -18 15 5 6 14
7 23 2 19 -5 -3 -9 4 -9 15 0 12 7 21 15 21 12 0 15 -15 15 -77 0 -53 -3 -73
-10 -63 -5 8 -7 26 -4 40 5 23 4 24 -9 8 -8 -10 -20 -18 -28 -19 -10 0 -11 -2
-1 -6 6 -2 12 -9 12 -14 0 -6 -4 -7 -10 -4 -5 3 -12 -6 -16 -20 -3 -13 -10
-23 -14 -20 -5 3 -13 -3 -19 -12 -14 -25 -14 -10 1 24 6 15 12 35 13 43 3 55
18 119 27 114 5 -3 7 -12 4 -20z m1379 16 c3 -5 1 -10 -4 -10 -6 0 -11 5 -11
10 0 6 2 10 4 10 3 0 8 -4 11 -10z m-1285 -20 c0 -5 -4 -10 -10 -10 -5 0 -10
5 -10 10 0 6 5 10 10 10 6 0 10 -4 10 -10z m1314 -5 c3 -8 1 -15 -4 -15 -6 0
-10 7 -10 15 0 8 2 15 4 15 2 0 6 -7 10 -15z m-479 -5 c-3 -5 2 -10 13 -10 10
0 27 -9 37 -20 16 -18 16 -20 1 -26 -9 -4 -20 -4 -23 0 -4 3 -1 6 5 6 7 0 12
5 12 10 0 6 -7 10 -16 10 -23 0 -55 20 -49 31 4 5 11 9 16 9 6 0 7 -4 4 -10z
m-1185 -72 l-10 -33 5 35 c5 32 4 33 -9 15 -15 -20 -15 -20 -16 1 0 11 5 25
12 32 19 19 31 -12 18 -50z m105 -47 c-8 -17 -20 -31 -25 -31 -6 0 -10 -7 -10
-15 0 -8 -5 -15 -11 -15 -11 0 -4 49 11 80 4 8 16 32 26 53 l19 38 3 -40 c2
-23 -4 -53 -13 -70z m40 69 c-4 -17 -9 -29 -12 -26 -3 2 -2 19 2 36 4 17 9 29
12 26 3 -2 2 -19 -2 -36z m248 20 c-3 -11 -7 -20 -9 -20 -2 0 -4 9 -4 20 0 11
4 20 9 20 5 0 7 -9 4 -20z m37 10 c0 -5 -5 -10 -11 -10 -5 0 -7 5 -4 10 3 6 8
10 11 10 2 0 4 -4 4 -10z m-513 -32 c-3 -8 -6 -5 -6 6 -1 11 2 17 5 13 3 -3 4
-12 1 -19z m1366 -32 c-3 -4 -9 -2 -14 5 -13 22 -11 31 5 17 8 -7 12 -17 9
-22z m-911 -28 c-8 -8 -9 -4 -5 13 4 13 8 18 11 10 2 -7 -1 -18 -6 -23z m-482
12 c0 -5 -4 -10 -10 -10 -5 0 -10 5 -10 10 0 6 5 10 10 10 6 0 10 -4 10 -10z
m372 -32 c-7 -7 -12 -8 -12 -2 0 6 3 14 7 17 3 4 9 5 12 2 2 -3 -1 -11 -7 -17z
m255 -20 c-3 -7 -5 -2 -5 12 0 14 2 19 5 13 2 -7 2 -19 0 -25z m759 5 c-10
-10 -19 5 -10 18 6 11 8 11 12 0 2 -7 1 -15 -2 -18z m44 -19 c0 -22 -2 -24
-14 -14 -8 6 -12 18 -9 26 9 23 23 16 23 -12z m-1470 12 c0 -2 -7 -9 -15 -16
-13 -11 -14 -10 -9 4 5 14 24 23 24 12z m1320 -40 c0 -3 -4 -8 -10 -11 -5 -3
-10 -1 -10 4 0 6 5 11 10 11 6 0 10 -2 10 -4z m60 -14 c0 -11 -48 -37 -55 -30
-8 8 24 38 41 38 8 0 14 -4 14 -8z m-794 -27 c-3 -9 -11 -13 -16 -10 -8 5 -7
11 1 21 14 18 24 11 15 -11z m814 5 c0 -5 -5 -10 -11 -10 -5 0 -7 5 -4 10 3 6
8 10 11 10 2 0 4 -4 4 -10z m64 -68 c-6 -14 -8 -14 -11 6 -3 12 -11 22 -19 22
-14 0 -19 12 -8 23 12 11 46 -34 38 -51z m66 13 c0 -8 -4 -15 -9 -15 -13 0
-22 16 -14 24 11 11 23 6 23 -9z m-30 -25 c0 -5 -2 -10 -4 -10 -3 0 -8 5 -11
10 -3 6 -1 10 4 10 6 0 11 -4 11 -10z m-573 -46 c-3 -3 -12 -4 -19 -1 -8 3 -5
6 6 6 11 1 17 -2 13 -5z m633 -52 c0 -5 -7 -9 -15 -9 -8 0 -12 4 -9 9 3 4 9 8
15 8 5 0 9 -4 9 -8z m27 -28 c-3 -3 -12 -4 -19 -1 -8 3 -5 6 6 6 11 1 17 -2
13 -5z m-2767 -25 c-7 -11 -14 -19 -16 -16 -7 7 7 37 17 37 6 0 5 -9 -1 -21z
m2850 -59 c0 -5 -4 -10 -10 -10 -5 0 -10 5 -10 10 0 6 5 10 10 10 6 0 10 -4
10 -10z m27 -36 c-3 -3 -12 -4 -19 -1 -8 3 -5 6 6 6 11 1 17 -2 13 -5z m-3342
-110 c-5 -27 -9 -34 -15 -23 -12 18 -33 -2 -28 -27 4 -22 28 -31 28 -10 0 28
20 17 21 -11 0 -16 2 -47 4 -70 4 -51 -10 -56 -28 -11 l-13 33 -18 -28 c-17
-25 -20 -26 -31 -10 -9 12 -10 25 -4 41 5 13 9 43 9 66 0 49 18 73 39 53 11
-10 13 -7 9 15 -3 15 0 29 6 31 20 8 29 -11 21 -49z m4143 3 c4 -34 -20 -45
-55 -26 l-25 13 29 23 c34 28 47 25 51 -10z m201 4 c13 -23 5 -31 -30 -31 -56
0 -85 34 -36 43 45 9 56 7 66 -12z m282 -9 c-28 -4 -40 6 -21 18 9 6 20 4 29
-3 12 -10 11 -13 -8 -15z m-746 -11 c0 -21 -69 -20 -73 1 -2 11 6 15 35 14 26
-1 38 -6 38 -15z m-361 -65 c-6 -16 -34 -30 -34 -18 0 10 22 32 32 32 4 0 5
-6 2 -14z m-4446 -69 c2 -10 -3 -17 -12 -17 -18 0 -29 16 -21 31 9 14 29 6 33
-14z m4470 7 c-9 -10 -21 -13 -29 -8 -9 5 -8 9 7 15 31 12 39 10 22 -7z
m-4400 -12 c2 -7 -6 -12 -17 -12 -21 0 -27 11 -14 24 9 9 26 2 31 -12z m1315
11 c-7 -2 -19 -2 -25 0 -7 3 -2 5 12 5 14 0 19 -2 13 -5z m-1235 -21 c2 -7 -3
-12 -12 -12 -9 0 -16 7 -16 16 0 17 22 14 28 -4z m4352 8 c0 -5 -4 -10 -10
-10 -5 0 -10 5 -10 10 0 6 5 10 10 10 6 0 10 -4 10 -10z m-4650 -35 c0 -26 6
-39 26 -51 37 -25 83 -26 97 -3 14 23 53 25 61 4 10 -27 276 -5 310 26 13 12
53 11 61 -1 3 -5 27 -10 53 -10 26 0 54 -5 62 -10 13 -9 12 -13 -8 -29 -12
-11 -18 -22 -13 -25 5 -4 10 -45 10 -92 1 -84 0 -86 -36 -130 -39 -46 -57 -54
-67 -29 -5 15 -76 22 -76 8 1 -16 28 -43 53 -52 19 -8 26 -18 29 -43 4 -40
-10 -78 -29 -78 -7 0 -13 -9 -13 -19 0 -11 -4 -23 -10 -26 -9 -6 -14 25 -13
80 0 11 -14 40 -31 65 -25 35 -51 55 -121 92 -50 27 -97 51 -105 54 -68 27
-90 33 -128 37 -24 3 -47 8 -50 12 -13 13 25 24 63 18 54 -8 39 5 -26 22 -29
8 -57 21 -61 30 -11 19 -27 19 -47 1 -9 -7 -44 -23 -79 -35 -99 -33 -222 -100
-275 -147 -26 -23 -58 -44 -70 -46 -22 -3 -57 28 -57 51 0 6 -6 11 -14 11 -20
0 -46 39 -46 70 0 13 -12 49 -27 78 -25 49 -25 54 -10 69 13 13 19 14 31 3 12
-9 16 -9 16 -1 0 9 23 12 73 12 39 1 106 1 147 3 41 1 87 -1 101 -5 15 -4 40
0 60 8 24 10 51 13 93 8 45 -5 57 -3 54 7 -3 7 -19 14 -36 16 -34 4 -40 13
-19 34 7 7 16 21 20 31 3 9 16 17 27 17 16 0 20 -6 20 -35z m447 18 c5 -13
-32 -27 -46 -18 -6 3 -8 12 -4 21 6 17 44 15 50 -3z m723 7 c0 -5 -4 -10 -10
-10 -5 0 -10 5 -10 10 0 6 5 10 10 10 6 0 10 -4 10 -10z m3555 0 c3 -5 1 -10
-4 -10 -6 0 -11 5 -11 10 0 6 2 10 4 10 3 0 8 -4 11 -10z m-95 -21 c0 -6 -4
-7 -10 -4 -5 3 -10 11 -10 16 0 6 5 7 10 4 6 -3 10 -11 10 -16z m160 -5 c0
-14 -4 -23 -10 -19 -5 3 -10 15 -10 26 0 10 5 19 10 19 6 0 10 -12 10 -26z
m-3618 -75 c-3 -46 0 -68 14 -95 l19 -35 -49 -45 c-52 -47 -62 -51 -68 -32 -4
10 -10 10 -31 1 -22 -10 -26 -17 -21 -41 6 -31 -18 -63 -31 -41 -13 20 -17
116 -6 123 6 4 11 23 11 41 0 19 8 50 17 70 16 34 16 37 0 65 -14 22 -15 30
-5 37 14 8 126 21 144 15 6 -2 9 -25 6 -63z m-428 52 c10 -15 -19 -42 -37 -35
-27 10 -22 44 7 44 14 0 27 -4 30 -9z m4001 -19 c-8 -2 -15 -15 -15 -28 0 -14
-4 -22 -10 -19 -15 9 -12 36 7 57 13 14 18 16 25 6 4 -8 2 -14 -7 -16z m65
-18 c0 -8 -4 -12 -10 -9 -5 3 -10 10 -10 16 0 5 5 9 10 9 6 0 10 -7 10 -16z
m870 -5 c0 -5 -7 -9 -15 -9 -15 0 -20 12 -9 23 8 8 24 -1 24 -14z m206 -1 c32
-9 49 -20 55 -35 6 -16 17 -23 34 -23 24 0 25 -2 25 -70 0 -61 -2 -70 -18 -70
-10 0 -26 6 -35 13 -15 10 -16 17 -6 45 11 31 9 34 -27 67 -26 24 -48 35 -68
35 -36 0 -78 19 -84 38 -5 16 62 16 124 0z m-6828 -10 c-6 -18 -28 -21 -28 -4
0 9 7 16 16 16 9 0 14 -5 12 -12z m6522 8 c0 -11 -19 -15 -25 -6 -3 5 1 10 9
10 9 0 16 -2 16 -4z m-4840 -41 c0 -16 -6 -25 -16 -25 -11 0 -14 5 -10 16 3 9
6 20 6 25 0 5 5 9 10 9 6 0 10 -11 10 -25z m1825 4 c14 -6 9 -7 -15 -3 -19 4
-44 11 -55 15 -14 6 -9 7 15 3 19 -4 44 -11 55 -15z m2185 -27 c0 -15 -2 -15
-10 -2 -13 20 -13 33 0 25 6 -3 10 -14 10 -23z m-4026 -58 c10 -25 7 -34 -9
-34 -9 0 -15 9 -15 25 0 28 15 34 24 9z m3996 -5 c0 -6 -4 -7 -10 -4 -5 3 -10
11 -10 16 0 6 5 7 10 4 6 -3 10 -11 10 -16z m-4685 -19 c-3 -5 -16 -10 -28
-10 -32 0 -217 -57 -245 -76 -13 -9 -26 -14 -28 -11 -6 6 105 80 141 94 38 14
169 17 160 3z m4760 0 c3 -5 1 -10 -4 -10 -6 0 -11 5 -11 10 0 6 2 10 4 10 3
0 8 -4 11 -10z m26 -13 c-10 -9 -11 -8 -5 6 3 10 9 15 12 12 3 -3 0 -11 -7
-18z m69 4 c0 -6 -4 -12 -9 -16 -5 -3 -12 -19 -16 -35 -4 -17 -11 -30 -16 -30
-5 0 -4 11 1 25 5 14 7 25 4 25 -2 0 0 9 6 20 11 21 30 27 30 11z m-66 -46
c-4 -8 -11 -12 -16 -9 -6 4 -5 10 3 15 19 12 19 11 13 -6z m3 -97 c-2 -13 -4
-5 -4 17 -1 22 1 32 4 23 2 -10 2 -28 0 -40z m-6047 1 c0 -22 -13 -25 -29 -6
-8 10 -7 17 1 25 15 15 28 6 28 -19z m2370 22 c0 -5 -12 -16 -27 -26 l-28 -17
25 25 c28 29 30 30 30 18z m3434 -27 c19 -7 20 -29 5 -73 -8 -23 -17 -31 -35
-31 -27 0 -30 14 -13 73 10 38 15 42 43 31z m-4954 -39 c-16 -19 -30 -19 -30
0 0 17 33 38 38 24 2 -5 -2 -16 -8 -24z m5170 19 c0 -2 -7 -4 -15 -4 -8 0 -15
4 -15 10 0 5 7 7 15 4 8 -4 15 -8 15 -10z m-5867 -112 c3 -70 1 -81 -15 -85
-19 -5 -26 17 -9 27 5 3 8 32 7 63 -2 56 2 88 11 80 2 -3 5 -41 6 -85z m-163
57 c0 -11 -4 -17 -10 -14 -5 3 -10 13 -10 21 0 8 5 14 10 14 6 0 10 -9 10 -21z
m1160 -14 c6 -16 15 -23 24 -19 8 3 12 12 9 21 -4 11 1 14 23 11 17 -2 29 -9
29 -17 0 -8 8 -19 17 -24 13 -9 21 -6 36 14 19 24 91 42 77 19 -3 -5 -17 -10
-30 -10 -16 0 -30 -11 -44 -34 -26 -42 -40 -46 -172 -46 -83 0 -108 3 -112 14
-7 17 23 46 46 46 9 0 17 6 17 13 0 41 65 51 80 12z m350 1 c0 -3 -4 -8 -10
-11 -5 -3 -10 -1 -10 4 0 6 5 11 10 11 6 0 10 -2 10 -4z m-66 -21 c24 -10 36
-22 36 -35 0 -20 -7 -23 -81 -35 -88 -14 -94 38 -9 77 8 4 16 7 16 7 1 1 18
-6 38 -14z m211 -30 c0 -42 -19 -58 -30 -25 -9 29 3 72 18 67 7 -2 12 -21 12
-42z m3317 14 c-18 -12 -35 -19 -38 -16 -3 3 7 12 23 21 42 23 53 19 15 -5z
m-3405 -46 c17 -23 6 -34 -25 -26 -29 6 -42 19 -42 42 0 18 50 6 67 -16z
m5430 -109 c-3 -3 -12 -4 -19 -1 -8 3 -5 6 6 6 11 1 17 -2 13 -5z m-5478 -66
c10 -28 -11 -47 -51 -48 -34 0 -37 21 -8 50 26 26 49 25 59 -2z m101 -8 c0 -5
-4 -10 -10 -10 -5 0 -10 5 -10 10 0 6 5 10 10 10 6 0 10 -4 10 -10z m-1566
-15 c5 -15 -27 -35 -58 -35 -6 0 -16 -4 -22 -10 -14 -14 -36 4 -28 23 11 30
98 47 108 22z m2761 -125 c49 -16 81 -29 71 -29 -43 -2 -296 96 -296 114 0 2
30 -10 67 -27 37 -16 108 -43 158 -58z m258 -51 c70 -8 104 -7 169 5 86 16
109 15 58 -2 -75 -27 -274 -22 -366 9 -26 8 -24 8 11 4 22 -3 80 -10 128 -16z
m-110 -36 c-7 -2 -19 -2 -25 0 -7 3 -2 5 12 5 14 0 19 -2 13 -5z m80 -10 c-7
-2 -21 -2 -30 0 -10 3 -4 5 12 5 17 0 24 -2 18 -5z m607 -883 c0 -5 -5 -10
-11 -10 -5 0 -7 5 -4 10 3 6 8 10 11 10 2 0 4 -4 4 -10z m1150 -14 c0 -3 -4
-8 -10 -11 -5 -3 -10 -1 -10 4 0 6 5 11 10 11 6 0 10 -2 10 -4z m-942 -53
c-10 -2 -26 -2 -35 0 -10 3 -2 5 17 5 19 0 27 -2 18 -5z m2192 -87 c0 -2 -11
-6 -25 -8 -13 -3 -22 -1 -19 3 5 9 44 13 44 5z m160 -6 c0 -5 -19 -9 -42 -9
-40 1 -41 2 -13 9 44 11 55 11 55 0z m84 -26 c3 -8 2 -12 -4 -9 -6 3 -10 10
-10 16 0 14 7 11 14 -7z m56 -4 c0 -5 -2 -10 -4 -10 -3 0 -8 5 -11 10 -3 6 -1
10 4 10 6 0 11 -4 11 -10z m55 -11 c11 -17 -1 -21 -15 -4 -8 9 -8 15 -2 15 6
0 14 -5 17 -11z m55 -9 c0 -5 -4 -10 -9 -10 -6 0 -13 5 -16 10 -3 6 1 10 9 10
9 0 16 -4 16 -10z m110 -40 c0 -5 -4 -10 -10 -10 -5 0 -10 5 -10 10 0 6 5 10
10 10 6 0 10 -4 10 -10z m60 -14 c0 -3 -4 -8 -10 -11 -5 -3 -10 -1 -10 4 0 6
5 11 10 11 6 0 10 -2 10 -4z m-670 -86 c0 -5 -4 -10 -10 -10 -5 0 -10 -6 -10
-14 0 -7 -7 -19 -15 -26 -9 -7 -13 -15 -10 -18 3 -3 -13 -15 -36 -26 -22 -12
-112 -70 -199 -130 -87 -59 -164 -106 -171 -104 -14 5 7 30 56 63 16 11 39 31
53 45 13 14 28 25 34 25 5 0 16 9 24 19 8 11 14 16 14 10 0 -5 5 -1 11 8 5 10
16 15 25 11 9 -3 14 0 12 7 -2 7 7 16 20 19 13 3 23 10 22 14 -1 12 48 50 110
85 59 34 70 38 70 22z m-60 -110 c0 -5 -2 -10 -4 -10 -3 0 -8 5 -11 10 -3 6
-1 10 4 10 6 0 11 -4 11 -10z m-80 -69 c0 -5 -11 -18 -25 -29 -14 -11 -25 -25
-25 -31 0 -7 -15 -18 -32 -26 -18 -8 -27 -14 -20 -15 6 0 12 -5 12 -11 0 -5
-5 -7 -10 -4 -6 3 -14 -4 -19 -17 -11 -27 -48 -68 -62 -68 -6 0 -8 -4 -4 -9 3
-5 -4 -16 -15 -24 -11 -7 -17 -16 -14 -20 9 -8 -54 -67 -71 -67 -9 0 -15 10
-16 23 0 12 -2 39 -3 60 -2 45 -2 45 49 79 22 15 85 58 140 97 102 71 115 78
115 62z m-280 -26 c0 -8 -7 -15 -15 -15 -8 0 -15 7 -15 15 0 8 7 15 15 15 8 0
15 -7 15 -15z m579 -171 c14 -12 -19 -1 -35 12 -18 14 -18 14 6 3 14 -6 27
-13 29 -15z m-1889 -4 c-8 -5 -24 -9 -35 -9 -16 1 -16 2 5 9 35 11 48 11 30 0z
m1795 0 c3 -6 -1 -7 -9 -4 -18 7 -21 14 -7 14 6 0 13 -4 16 -10z m350 0 c3 -5
2 -10 -4 -10 -5 0 -13 5 -16 10 -3 6 -2 10 4 10 5 0 13 -4 16 -10z m-334 -67
c13 -17 13 -17 -6 -3 -11 8 -22 16 -24 17 -2 2 0 3 6 3 6 0 17 -8 24 -17z m84
7 c3 -6 -1 -7 -9 -4 -18 7 -21 14 -7 14 6 0 13 -4 16 -10z m-575 -74 c0 -3 -4
-8 -10 -11 -5 -3 -10 -1 -10 4 0 6 5 11 10 11 6 0 10 -2 10 -4z m446 -22 c18
-14 18 -14 -6 -3 -31 14 -36 19 -24 19 6 0 19 -7 30 -16z m39 -2 c-3 -3 -11 0
-18 7 -9 10 -8 11 6 5 10 -3 15 -9 12 -12z m-2294 -56 c0 12 4 9 10 -10 4 -17
7 -32 5 -34 -10 -9 -46 25 -46 43 1 20 1 20 15 1 15 -20 15 -20 16 0z m2223
-15 c-2 -3 -12 3 -22 13 -16 17 -16 18 5 5 12 -7 20 -15 17 -18z m-2794 -11
c0 -5 -5 -10 -11 -10 -5 0 -7 5 -4 10 3 6 8 10 11 10 2 0 4 -4 4 -10z m520
-40 c0 -11 -7 -20 -15 -20 -15 0 -21 21 -8 33 12 13 23 7 23 -13z m-220 0 c0
-5 -4 -10 -10 -10 -5 0 -10 5 -10 10 0 6 5 10 10 10 6 0 10 -4 10 -10z m94
-45 c-6 -16 -24 -21 -24 -7 0 11 11 22 21 22 5 0 6 -7 3 -15z m2071 -3 c-3 -3
-11 0 -18 7 -9 10 -8 11 6 5 10 -3 15 -9 12 -12z m-2002 -67 c-7 -21 -13 -19
-13 6 0 11 4 18 10 14 5 -3 7 -12 3 -20z m-79 -51 c9 -22 8 -24 -9 -18 -8 4
-15 12 -15 20 0 19 16 18 24 -2z m2351 -164 c3 -5 1 -10 -4 -10 -6 0 -11 5
-11 10 0 6 2 10 4 10 3 0 8 -4 11 -10z m55 -4 c0 -2 -7 -7 -16 -10 -8 -3 -12
-2 -9 4 6 10 25 14 25 6z"/>
<path d="M3686 5105 c7 -18 20 -19 30 -3 4 7 3 8 -4 4 -7 -4 -12 -2 -12 3 0 6
-4 11 -10 11 -5 0 -7 -7 -4 -15z"/>
<path d="M3580 5085 c-20 -24 -6 -28 15 -5 10 11 13 20 8 20 -6 0 -16 -7 -23
-15z"/>
<path d="M4030 5080 c0 -5 5 -10 11 -10 5 0 7 5 4 10 -3 6 -8 10 -11 10 -2 0
-4 -4 -4 -10z"/>
<path d="M3657 5060 c-14 -17 -14 -20 -2 -20 8 0 15 -7 15 -15 0 -8 -4 -15
-10 -15 -5 0 -10 -10 -10 -22 0 -17 5 -13 30 20 34 48 36 57 14 66 -20 8 -17
9 -37 -14z"/>
<path d="M3992 5040 c0 -14 2 -19 5 -12 2 6 2 18 0 25 -3 6 -5 1 -5 -13z"/>
<path d="M4015 5019 c-4 -6 -5 -12 -2 -15 2 -3 7 2 10 11 7 17 1 20 -8 4z"/>
<path d="M3945 5010 c-3 -5 -1 -10 4 -10 6 0 11 5 11 10 0 6 -2 10 -4 10 -3 0
-8 -4 -11 -10z"/>
<path d="M5040 4390 c0 -5 5 -10 10 -10 6 0 10 5 10 10 0 6 -4 10 -10 10 -5 0
-10 -4 -10 -10z"/>
<path d="M3098 4343 c12 -2 32 -2 45 0 12 2 2 4 -23 4 -25 0 -35 -2 -22 -4z"/>
<path d="M3209 4330 c19 -4 59 -11 90 -14 42 -4 48 -3 22 4 -19 4 -59 11 -90
14 -42 4 -48 3 -22 -4z"/>
<path d="M4246 5037 c3 -10 9 -15 12 -12 3 3 0 11 -7 18 -10 9 -11 8 -5 -6z"/>
<path d="M5894 3845 c-7 -39 0 -55 17 -38 14 14 16 65 2 70 -7 3 -15 -10 -19
-32z"/>
<path d="M5788 1783 c7 -3 16 -2 19 1 4 3 -2 6 -13 5 -11 0 -14 -3 -6 -6z"/>
<path d="M5645 1690 c-16 -7 -17 -9 -3 -9 9 -1 20 4 23 9 7 11 7 11 -20 0z"/>
<path d="M5045 5980 c-3 -5 -1 -10 4 -10 6 0 11 5 11 10 0 6 -2 10 -4 10 -3 0
-8 -4 -11 -10z"/>
<path d="M5060 5902 c0 -6 -3 -17 -6 -25 -3 -9 3 -16 15 -20 25 -6 29 24 6 43
-9 8 -15 8 -15 2z"/>
<path d="M5010 5889 c0 -5 5 -7 10 -4 6 3 10 8 10 11 0 2 -4 4 -10 4 -5 0 -10
-5 -10 -11z"/>
<path d="M5416 5848 c-18 -25 -20 -38 -7 -38 5 0 14 14 20 30 12 36 8 38 -13
8z"/>
<path d="M5047 5844 c-3 -3 -3 -12 0 -20 3 -8 -1 -14 -9 -14 -8 0 -20 -10 -25
-22 -11 -23 -11 -23 -18 5 -4 15 -11 27 -16 27 -13 0 -11 -38 2 -42 9 -3 9 -9
0 -25 -6 -12 -11 -28 -10 -35 0 -7 5 -3 11 10 7 14 19 22 32 21 35 -2 46 0 46
12 0 6 -9 8 -21 4 -16 -5 -20 -3 -17 6 3 8 12 13 22 11 10 -2 16 4 16 17 0 11
3 26 6 35 6 16 -7 22 -19 10z"/>
<path d="M5230 5840 c0 -5 5 -10 10 -10 6 0 10 5 10 10 0 6 -4 10 -10 10 -5 0
-10 -4 -10 -10z"/>
<path d="M5256 5809 c-16 -19 -15 -19 11 -13 26 7 27 6 14 -10 -10 -11 -11
-20 -4 -27 7 -7 13 -2 17 16 4 16 2 31 -7 40 -12 11 -16 10 -31 -6z"/>
<path d="M5140 5789 c0 -26 3 -30 19 -26 14 3 18 1 14 -9 -3 -8 1 -14 11 -14
9 0 16 4 16 9 0 5 3 17 7 27 5 13 3 16 -9 11 -11 -4 -18 1 -21 14 -9 32 -37
23 -37 -12z"/>
<path d="M4951 5774 c0 -11 3 -14 6 -6 3 7 2 16 -1 19 -3 4 -6 -2 -5 -13z"/>
<path d="M5116 5751 c-3 -5 1 -11 9 -14 9 -4 12 -1 8 9 -6 16 -10 17 -17 5z"/>
<path d="M5515 5740 c-3 -5 -1 -10 4 -10 6 0 11 5 11 10 0 6 -2 10 -4 10 -3 0
-8 -4 -11 -10z"/>
<path d="M5210 5730 c0 -5 5 -10 10 -10 6 0 10 5 10 10 0 6 -4 10 -10 10 -5 0
-10 -4 -10 -10z"/>
<path d="M5150 5719 c0 -5 5 -7 10 -4 6 3 10 8 10 11 0 2 -4 4 -10 4 -5 0 -10
-5 -10 -11z"/>
<path d="M5545 5720 c-3 -5 -1 -10 4 -10 6 0 11 5 11 10 0 6 -2 10 -4 10 -3 0
-8 -4 -11 -10z"/>
<path d="M4990 5712 c0 -5 7 -13 16 -16 10 -4 14 -1 12 6 -5 15 -28 23 -28 10z"/>
<path d="M5240 5710 c0 -5 5 -10 10 -10 6 0 10 5 10 10 0 6 -4 10 -10 10 -5 0
-10 -4 -10 -10z"/>
<path d="M5185 5700 c3 -5 8 -10 11 -10 2 0 4 5 4 10 0 6 -5 10 -11 10 -5 0
-7 -4 -4 -10z"/>
<path d="M5575 5700 c-3 -5 -1 -10 4 -10 6 0 11 5 11 10 0 6 -2 10 -4 10 -3 0
-8 -4 -11 -10z"/>
<path d="M4950 5678 c0 -6 -10 -22 -22 -35 -27 -29 -19 -40 10 -13 19 18 31
60 17 60 -3 0 -5 -5 -5 -12z"/>
<path d="M5545 5680 c3 -5 8 -10 11 -10 2 0 4 5 4 10 0 6 -5 10 -11 10 -5 0
-7 -4 -4 -10z"/>
<path d="M5605 5680 c-3 -5 -1 -10 4 -10 6 0 11 5 11 10 0 6 -2 10 -4 10 -3 0
-8 -4 -11 -10z"/>
<path d="M5663 5635 c0 -25 3 -45 7 -45 8 0 6 78 -2 85 -3 3 -5 -15 -5 -40z"/>
<path d="M5247 5664 c-8 -8 1 -24 14 -24 5 0 9 7 9 15 0 15 -12 20 -23 9z"/>
<path d="M5635 5661 c-3 -5 -1 -12 5 -16 5 -3 10 1 10 9 0 18 -6 21 -15 7z"/>
<path d="M5587 5653 c-4 -3 -7 -16 -6 -27 1 -18 2 -18 9 4 4 14 8 19 9 13 1
-7 5 -13 11 -13 5 0 7 7 4 15 -7 16 -17 19 -27 8z"/>
<path d="M5690 5650 c0 -5 5 -10 11 -10 5 0 7 5 4 10 -3 6 -8 10 -11 10 -2 0
-4 -4 -4 -10z"/>
<path d="M5210 5639 c0 -5 5 -7 10 -4 6 3 10 8 10 11 0 2 -4 4 -10 4 -5 0 -10
-5 -10 -11z"/>
<path d="M5321 5633 c-16 -31 -17 -66 -2 -71 10 -3 12 0 8 11 -3 9 -2 19 2 22
5 2 11 -4 14 -15 3 -11 2 -22 -3 -25 -19 -12 20 -95 45 -95 4 0 18 -14 32 -31
18 -21 29 -27 36 -20 13 13 -53 81 -77 81 -20 0 -25 21 -19 69 4 32 2 42 -11
47 -9 3 -16 10 -16 16 0 5 5 6 10 3 6 -3 10 1 10 9 0 21 -17 20 -29 -1z"/>
<path d="M5830 5640 c0 -5 5 -10 10 -10 6 0 10 5 10 10 0 6 -4 10 -10 10 -5 0
-10 -4 -10 -10z"/>
<path d="M5240 5620 c0 -5 4 -10 9 -10 6 0 13 5 16 10 3 6 -1 10 -9 10 -9 0
-16 -4 -16 -10z"/>
<path d="M5630 5620 c0 -5 5 -10 11 -10 5 0 7 5 4 10 -3 6 -8 10 -11 10 -2 0
-4 -4 -4 -10z"/>
<path d="M5861 5614 c0 -11 3 -14 6 -6 3 7 2 16 -1 19 -3 4 -6 -2 -5 -13z"/>
<path d="M5600 5610 c0 -5 5 -10 10 -10 6 0 10 5 10 10 0 6 -4 10 -10 10 -5 0
-10 -4 -10 -10z"/>
<path d="M5690 5595 c0 -14 5 -25 11 -25 8 0 8 -5 -1 -15 -10 -12 -10 -15 3
-15 25 0 31 19 12 40 -9 10 -14 24 -10 29 3 6 1 11 -4 11 -6 0 -11 -11 -11
-25z"/>
<path d="M5560 5600 c0 -4 11 -15 25 -24 18 -12 25 -13 25 -4 0 7 -11 18 -25
25 -14 6 -25 8 -25 3z"/>
<path d="M5635 5591 c-3 -5 -1 -12 5 -16 5 -3 10 1 10 9 0 18 -6 21 -15 7z"/>
<path d="M5725 5590 c3 -5 8 -10 11 -10 2 0 4 5 4 10 0 6 -5 10 -11 10 -5 0
-7 -4 -4 -10z"/>
<path d="M5885 5590 c-3 -5 -1 -10 4 -10 6 0 11 5 11 10 0 6 -2 10 -4 10 -3 0
-8 -4 -11 -10z"/>
<path d="M5530 5581 c0 -6 5 -13 10 -16 6 -3 10 1 10 9 0 9 -4 16 -10 16 -5 0
-10 -4 -10 -9z"/>
<path d="M5280 5544 c0 -8 5 -12 10 -9 6 4 8 11 5 16 -9 14 -15 11 -15 -7z"/>
<path d="M5596 5541 c-3 -5 1 -11 9 -15 9 -3 15 0 15 9 0 16 -16 20 -24 6z"/>
<path d="M5367 5534 c-8 -8 1 -24 14 -24 5 0 9 7 9 15 0 15 -12 20 -23 9z"/>
<path d="M5630 5516 c0 -9 5 -16 10 -16 6 0 10 4 10 9 0 6 -4 13 -10 16 -5 3
-10 -1 -10 -9z"/>
<path d="M5285 5510 c-3 -5 -1 -10 4 -10 6 0 11 5 11 10 0 6 -2 10 -4 10 -3 0
-8 -4 -11 -10z"/>
<path d="M5275 5460 c-3 -5 -1 -10 4 -10 6 0 11 5 11 10 0 6 -2 10 -4 10 -3 0
-8 -4 -11 -10z"/>
<path d="M5250 5248 c11 -12 23 -18 27 -14 5 4 -1 14 -11 22 -30 21 -39 17
-16 -8z"/>
<path d="M5640 5255 c0 -7 7 -12 15 -11 24 4 27 13 5 19 -13 3 -20 0 -20 -8z"/>
<path d="M5674 5229 c-9 -16 2 -22 21 -11 15 8 16 10 1 15 -8 3 -18 2 -22 -4z"/>
<path d="M5700 5205 c0 -11 35 -45 47 -45 19 0 16 9 -9 31 -22 18 -38 24 -38
14z"/>
<path d="M6010 5194 c0 -9 5 -14 12 -12 18 6 21 28 4 28 -9 0 -16 -7 -16 -16z"/>
<path d="M5650 5191 c0 -6 5 -13 10 -16 6 -3 10 1 10 9 0 9 -4 16 -10 16 -5 0
-10 -4 -10 -9z"/>
<path d="M5260 5175 c0 -8 5 -15 10 -15 6 0 10 7 10 15 0 8 -4 15 -10 15 -5 0
-10 -7 -10 -15z"/>
<path d="M5680 5172 c0 -15 24 -32 45 -31 16 1 17 2 3 6 -10 2 -18 11 -18 19
0 8 -7 14 -15 14 -8 0 -15 -4 -15 -8z"/>
<path d="M5568 5164 c-4 -3 0 -13 8 -21 19 -20 28 -12 11 11 -7 9 -16 14 -19
10z"/>
<path d="M5255 5131 c-6 -11 9 -23 19 -14 9 9 7 23 -3 23 -6 0 -12 -4 -16 -9z"/>
<path d="M5650 5121 c0 -10 36 -21 44 -14 3 3 3 10 0 14 -7 12 -44 12 -44 0z"/>
<path d="M6100 5120 c0 -5 5 -10 10 -10 6 0 10 5 10 10 0 6 -4 10 -10 10 -5 0
-10 -4 -10 -10z"/>
<path d="M5286 5113 c-11 -11 -6 -23 9 -23 8 0 15 4 15 9 0 13 -16 22 -24 14z"/>
<path d="M5750 5101 c0 -5 5 -13 10 -16 6 -3 10 -2 10 4 0 5 -4 13 -10 16 -5
3 -10 2 -10 -4z"/>
<path d="M5256 5073 c-11 -11 -6 -23 9 -23 8 0 15 4 15 9 0 13 -16 22 -24 14z"/>
<path d="M5520 5069 c0 -5 5 -7 10 -4 6 3 10 8 10 11 0 2 -4 4 -10 4 -5 0 -10
-5 -10 -11z"/>
<path d="M5787 5064 c3 -7 9 -14 14 -14 14 0 10 17 -5 23 -10 4 -13 1 -9 -9z"/>
<path d="M5738 5063 c7 -3 16 -2 19 1 4 3 -2 6 -13 5 -11 0 -14 -3 -6 -6z"/>
<path d="M5820 5035 c-8 -9 -8 -15 -2 -15 12 0 26 19 19 26 -2 2 -10 -2 -17
-11z"/>
<path d="M5220 5020 c0 -22 8 -25 30 -10 13 9 13 11 0 20 -22 15 -30 12 -30
-10z"/>
<path d="M5761 5033 c0 -5 17 -21 37 -37 l37 -30 -34 37 c-36 38 -42 42 -40
30z"/>
<path d="M5392 5021 c4 -13 18 -16 19 -4 0 4 -5 9 -11 12 -7 2 -11 -2 -8 -8z"/>
<path d="M5330 5000 c0 -5 4 -10 9 -10 6 0 13 5 16 10 3 6 -1 10 -9 10 -9 0
-16 -4 -16 -10z"/>
<path d="M5980 4979 c0 -5 5 -7 10 -4 6 3 10 8 10 11 0 2 -4 4 -10 4 -5 0 -10
-5 -10 -11z"/>
<path d="M5935 4971 c-6 -11 9 -23 19 -14 9 9 7 23 -3 23 -6 0 -12 -4 -16 -9z"/>
<path d="M5890 4959 c0 -5 5 -7 10 -4 6 3 10 8 10 11 0 2 -4 4 -10 4 -5 0 -10
-5 -10 -11z"/>
<path d="M5621 4943 c7 -10 14 -20 16 -22 1 -1 7 0 13 4 8 5 5 11 -7 21 -25
19 -38 17 -22 -3z"/>
<path d="M5673 4950 c2 -9 16 -15 33 -15 16 0 35 -4 42 -9 17 -10 26 -1 19 19
-8 18 -48 20 -65 3 -10 -10 -15 -10 -23 2 -9 13 -10 13 -6 0z"/>
<path d="M5840 4949 c0 -5 5 -7 10 -4 6 3 10 8 10 11 0 2 -4 4 -10 4 -5 0 -10
-5 -10 -11z"/>
<path d="M5915 4930 c3 -5 8 -10 11 -10 2 0 4 5 4 10 0 6 -5 10 -11 10 -5 0
-7 -4 -4 -10z"/>
<path d="M5597 4899 c-6 -22 6 -25 22 -5 9 10 8 15 -3 19 -8 3 -16 -2 -19 -14z"/>
<path d="M5670 4910 c0 -5 7 -10 16 -10 8 0 12 5 9 10 -3 6 -10 10 -16 10 -5
0 -9 -4 -9 -10z"/>
<path d="M5700 4890 c-21 -7 -21 -8 -5 -9 11 0 27 4 35 9 18 11 5 11 -30 0z"/>
<path d="M5790 4890 c0 -5 7 -10 16 -10 8 0 12 5 9 10 -3 6 -10 10 -16 10 -5
0 -9 -4 -9 -10z"/>
<path d="M5846 4885 c4 -10 0 -15 -12 -15 -14 0 -15 -3 -6 -12 10 -10 15 -10
22 2 13 20 13 40 0 40 -5 0 -7 -7 -4 -15z"/>
<path d="M5630 4875 c0 -8 7 -15 15 -15 8 0 15 7 15 15 0 8 -7 15 -15 15 -8 0
-15 -7 -15 -15z"/>
<path d="M5758 4883 c7 -3 16 -2 19 1 4 3 -2 6 -13 5 -11 0 -14 -3 -6 -6z"/>
<path d="M5912 4879 c2 -6 8 -10 13 -10 5 0 11 4 13 10 2 6 -4 11 -13 11 -9 0
-15 -5 -13 -11z"/>
<path d="M5671 4856 c-7 -8 -8 -17 -3 -20 6 -3 15 1 21 8 8 10 27 13 57 12 24
-2 44 0 44 5 0 15 -106 10 -119 -5z"/>
<path d="M5905 4840 c3 -5 8 -10 11 -10 2 0 4 5 4 10 0 6 -5 10 -11 10 -5 0
-7 -4 -4 -10z"/>
<path d="M5620 4830 c-13 -8 -12 -10 3 -10 9 0 17 5 17 10 0 12 -1 12 -20 0z"/>
<path d="M5693 4820 c-1 -11 1 -20 5 -20 4 0 15 9 25 20 16 19 16 20 -6 20
-16 0 -23 -6 -24 -20z"/>
<path d="M5850 4818 c0 -5 -12 -6 -27 -3 -26 5 -26 5 -5 -4 25 -12 30 -31 7
-31 -8 0 -15 5 -15 12 0 9 -3 9 -12 -1 -11 -10 -9 -14 5 -22 9 -6 15 -14 12
-20 -4 -5 9 -9 27 -9 27 1 30 2 16 11 -26 14 -22 32 5 24 20 -6 21 -5 5 8 -25
20 -22 27 9 27 14 0 23 3 19 7 -10 10 -46 11 -46 1z"/>
<path d="M6020 4799 c0 -20 4 -29 13 -26 6 2 10 11 8 18 -2 8 -4 20 -4 27 -1
27 -17 10 -17 -19z"/>
<path d="M5640 4806 c0 -2 9 -6 20 -9 11 -3 20 -1 20 4 0 5 -9 9 -20 9 -11 0
-20 -2 -20 -4z"/>
<path d="M5726 4796 c3 -8 1 -17 -5 -21 -6 -3 -11 -11 -11 -18 0 -8 3 -8 12 1
17 17 41 15 35 -3 -4 -8 -2 -17 3 -20 6 -4 10 -1 10 4 0 6 5 11 11 11 6 0 8
-9 4 -20 -4 -13 -2 -20 7 -20 7 0 24 -12 37 -25 13 -14 19 -25 13 -25 -5 0
-15 7 -22 15 -14 17 -40 20 -40 5 0 -5 7 -10 15 -10 8 0 15 -9 15 -20 0 -11
-4 -20 -10 -20 -5 0 -10 7 -10 15 0 8 -6 15 -14 15 -15 0 -11 -35 7 -57 12
-16 27 -17 27 -3 0 6 11 23 25 38 27 28 33 62 13 62 -9 0 -8 3 2 9 8 6 17 8
21 6 10 -7 50 35 44 46 -10 16 -25 10 -25 -10 0 -24 -47 -35 -75 -16 -31 20
-65 55 -65 65 0 6 -7 10 -15 10 -8 0 -12 -6 -9 -14z"/>
<path d="M5770 4799 c0 -5 5 -7 10 -4 6 3 10 8 10 11 0 2 -4 4 -10 4 -5 0 -10
-5 -10 -11z"/>
<path d="M6071 4794 c0 -11 3 -14 6 -6 3 7 2 16 -1 19 -3 4 -6 -2 -5 -13z"/>
<path d="M5890 4795 c0 -2 9 -9 20 -15 16 -9 18 -8 14 5 -5 13 -34 22 -34 10z"/>
<path d="M5680 4735 c0 -8 -6 -15 -12 -15 -9 0 -8 -3 2 -10 11 -7 17 -5 22 8
10 25 9 32 -2 32 -5 0 -10 -7 -10 -15z"/>
<path d="M5945 4740 c-3 -5 1 -10 9 -10 9 0 16 5 16 10 0 6 -4 10 -9 10 -6 0
-13 -4 -16 -10z"/>
<path d="M6050 4735 c0 -8 7 -15 15 -15 9 0 12 6 9 15 -4 8 -10 15 -15 15 -5
0 -9 -7 -9 -15z"/>
<path d="M5740 4691 c-15 -4 -20 -10 -13 -14 13 -8 43 1 43 14 0 5 -1 9 -2 8
-2 -1 -14 -4 -28 -8z"/>
<path d="M5885 4690 c27 -12 35 -12 35 0 0 6 -12 10 -27 9 -25 0 -26 -1 -8 -9z"/>
<path d="M5993 4655 c0 -8 8 -15 17 -15 9 0 17 7 17 15 0 8 -8 15 -17 15 -9 0
-17 -7 -17 -15z"/>
<path d="M5971 4614 c0 -11 3 -14 6 -6 3 7 2 16 -1 19 -3 4 -6 -2 -5 -13z"/>
<path d="M6003 4624 c-13 -6 -2 -59 13 -59 5 0 10 15 12 33 3 31 -1 35 -25 26z"/>
<path d="M6042 4595 c0 -16 2 -22 5 -12 2 9 2 23 0 30 -3 6 -5 -1 -5 -18z"/>
<path d="M5974 4555 c7 -49 -2 -85 -20 -85 -8 0 -14 -6 -14 -14 0 -8 -2 -21
-5 -29 -4 -8 0 -14 10 -14 9 0 15 7 14 16 -2 29 1 36 10 22 7 -11 11 -5 16 22
4 20 11 37 16 37 5 0 9 7 9 16 0 8 -4 12 -10 9 -5 -3 -10 2 -10 12 0 10 -5 25
-11 33 -8 11 -9 5 -5 -25z"/>
<path d="M6025 4537 c-4 -10 -5 -21 -1 -24 10 -10 18 4 13 24 -4 17 -4 17 -12
0z"/>
<path d="M6152 4520 c0 -19 2 -27 5 -17 2 9 2 25 0 35 -3 9 -5 1 -5 -18z"/>
<path d="M5915 4520 c-3 -5 -1 -10 4 -10 6 0 11 5 11 10 0 6 -2 10 -4 10 -3 0
-8 -4 -11 -10z"/>
<path d="M6050 4493 c0 -2 4 -11 9 -21 5 -9 12 -25 15 -35 3 -10 11 -15 17
-11 8 5 8 8 0 13 -6 4 -12 18 -13 32 -1 14 -8 26 -15 26 -7 0 -13 -2 -13 -4z"/>
<path d="M5915 4479 c-11 -16 -1 -19 13 -3 7 8 8 14 3 14 -5 0 -13 -5 -16 -11z"/>
<path d="M5997 4461 c-3 -11 -1 -23 3 -26 14 -8 22 13 12 31 -8 14 -10 14 -15
-5z"/>
<path d="M6160 4464 c0 -8 5 -12 10 -9 6 3 10 10 10 16 0 5 -4 9 -10 9 -5 0
-10 -7 -10 -16z"/>
<path d="M7420 4470 c0 -5 5 -10 10 -10 6 0 10 5 10 10 0 6 -4 10 -10 10 -5 0
-10 -4 -10 -10z"/>
<path d="M5880 4450 c0 -5 5 -10 10 -10 6 0 10 5 10 10 0 6 -4 10 -10 10 -5 0
-10 -4 -10 -10z"/>
<path d="M7200 4440 c0 -5 9 -10 20 -10 11 0 20 5 20 10 0 6 -9 10 -20 10 -11
0 -20 -4 -20 -10z"/>
<path d="M6170 4380 c0 -19 3 -21 12 -12 9 9 9 15 0 24 -9 9 -12 7 -12 -12z"/>
<path d="M190 4315 c0 -8 7 -15 16 -15 14 0 14 3 4 15 -7 8 -14 15 -16 15 -2
0 -4 -7 -4 -15z"/>
<path d="M433 3948 c4 -12 2 -27 -4 -34 -5 -7 -6 -15 -1 -18 15 -9 52 5 52 20
0 8 8 14 18 15 11 0 7 4 -10 11 -16 5 -28 14 -28 19 0 5 -7 9 -16 9 -12 0 -15
-6 -11 -22z"/>
<path d="M7010 3890 c0 -5 7 -7 15 -4 8 4 15 8 15 10 0 2 -7 4 -15 4 -8 0 -15
-4 -15 -10z"/>
<path d="M7218 3893 c6 -2 18 -2 25 0 6 3 1 5 -13 5 -14 0 -19 -2 -12 -5z"/>
<path d="M6625 3880 c-3 -5 -1 -10 4 -10 6 0 11 5 11 10 0 6 -2 10 -4 10 -3 0
-8 -4 -11 -10z"/>
<path d="M7090 3869 c-25 -4 -56 -5 -69 -2 -17 4 -22 2 -19 -8 3 -8 15 -13 28
-11 12 1 29 -3 36 -9 8 -6 25 -9 38 -5 18 4 25 1 29 -14 6 -22 32 -27 43 -9 4
7 15 1 29 -17 20 -25 25 -27 39 -15 18 16 22 76 4 87 -15 10 -102 11 -158 3z"/>
<path d="M7324 3568 c-7 -11 8 -15 64 -17 28 -1 52 2 52 8 0 11 -110 20 -116
9z"/>
<path d="M7185 3550 c3 -5 8 -10 11 -10 2 0 4 5 4 10 0 6 -5 10 -11 10 -5 0
-7 -4 -4 -10z"/>
<path d="M2105 3340 c-4 -6 -14 -9 -23 -8 -11 2 -17 -4 -17 -17 0 -15 6 -19
23 -18 14 2 21 -1 17 -7 -5 -7 3 -8 22 -3 37 10 105 6 113 -7 4 -6 12 1 19 16
6 15 8 30 4 34 -14 13 -151 21 -158 10z"/>
<path d="M2138 3039 c-25 -14 -22 -38 5 -48 17 -7 24 -4 29 10 4 11 17 19 28
19 11 0 20 7 20 15 0 18 -55 20 -82 4z"/>
<path d="M6240 3000 c0 -5 7 -10 15 -10 8 0 15 5 15 10 0 6 -7 10 -15 10 -8 0
-15 -4 -15 -10z"/>
<path d="M2061 2987 c-7 -10 -10 -17 -6 -17 4 0 2 -7 -5 -15 -7 -9 -10 -18 -6
-22 7 -7 177 -5 184 2 9 9 -21 35 -38 35 -10 0 -32 -8 -48 -17 -25 -14 -33
-15 -45 -4 -9 7 -17 22 -19 33 -3 20 -4 20 -17 5z"/>
<path d="M1980 2950 c0 -5 5 -10 10 -10 6 0 10 5 10 10 0 6 -4 10 -10 10 -5 0
-10 -4 -10 -10z"/>
<path d="M3840 2940 c0 -5 7 -10 15 -10 8 0 15 5 15 10 0 6 -7 10 -15 10 -8 0
-15 -4 -15 -10z"/>
<path d="M4018 2943 c12 -2 30 -2 40 0 9 3 -1 5 -23 4 -22 0 -30 -2 -17 -4z"/>
<path d="M6150 2940 c0 -5 7 -10 15 -10 8 0 15 5 15 10 0 6 -7 10 -15 10 -8 0
-15 -4 -15 -10z"/>
<path d="M6713 2909 c11 -7 23 -7 35 0 14 9 11 10 -18 10 -29 0 -32 -1 -17
-10z"/>
<path d="M602 2878 c3 -7 15 -15 27 -16 16 -3 22 1 19 10 -3 7 -15 15 -27 16
-16 3 -22 -1 -19 -10z"/>
<path d="M1500 2880 c-8 -5 -35 -10 -60 -10 -33 0 -41 -3 -30 -10 17 -11 90
-13 114 -4 19 7 22 34 4 34 -7 0 -20 -5 -28 -10z"/>
<path d="M2147 2883 c-15 -15 -5 -23 28 -23 36 0 47 13 19 24 -20 8 -39 8 -47
-1z"/>
<path d="M1972 2848 c3 -7 15 -15 29 -16 13 -2 30 -9 37 -14 14 -12 42 6 42
28 0 10 -15 14 -56 14 -40 0 -55 -4 -52 -12z"/>
<path d="M2173 2821 c-57 -22 -63 -31 -21 -31 43 0 111 27 103 40 -8 14 -32
11 -82 -9z"/>
<path d="M6920 2820 c0 -5 4 -10 9 -10 6 0 13 5 16 10 3 6 -1 10 -9 10 -9 0
-16 -4 -16 -10z"/>
<path d="M648 2803 c7 -3 16 -2 19 1 4 3 -2 6 -13 5 -11 0 -14 -3 -6 -6z"/>
<path d="M736 2801 c-3 -5 1 -12 10 -15 27 -10 52 -7 58 9 4 12 -3 15 -29 15
-18 0 -36 -4 -39 -9z"/>
<path d="M6179 2799 c16 -6 28 -6 35 1 7 7 -1 10 -24 9 -33 0 -34 -1 -11 -10z"/>
<path d="M2428 2763 c7 -3 16 -2 19 1 4 3 -2 6 -13 5 -11 0 -14 -3 -6 -6z"/>
<path d="M2110 2751 c0 -6 9 -12 20 -12 11 -1 25 -3 30 -4 6 -1 13 -3 18 -4
16 -3 -33 -31 -57 -32 -16 -1 -8 -5 22 -11 26 -6 59 -7 73 -4 25 7 26 8 9 26
-10 11 -24 20 -31 20 -7 0 -14 4 -16 9 -5 13 -68 25 -68 12z"/>
<path d="M6838 2753 c7 -3 16 -2 19 1 4 3 -2 6 -13 5 -11 0 -14 -3 -6 -6z"/>
<path d="M6126 2732 c6 -4 13 -14 16 -22 3 -10 6 -8 10 8 5 18 2 22 -15 22
-13 0 -17 -3 -11 -8z"/>
<path d="M1007 2674 c-12 -12 4 -24 33 -24 36 0 61 10 54 21 -6 10 -77 12 -87
3z"/>
<path d="M1243 2662 c20 -19 197 -32 197 -13 0 14 -26 19 -129 25 -77 4 -82 3
-68 -12z"/>
<path d="M6203 2673 c-27 -10 -11 -23 27 -23 40 0 53 13 24 24 -18 7 -33 7
-51 -1z"/>
<path d="M6720 2669 c0 -12 43 -19 115 -19 44 1 64 4 55 9 -18 11 -170 19
-170 10z"/>
<path d="M2715 2660 c-3 -5 -1 -10 4 -10 6 0 11 5 11 10 0 6 -2 10 -4 10 -3 0
-8 -4 -11 -10z"/>
<path d="M2760 2660 c0 -5 5 -10 11 -10 5 0 7 5 4 10 -3 6 -8 10 -11 10 -2 0
-4 -4 -4 -10z"/>
<path d="M2025 2650 c-4 -6 7 -10 25 -10 25 0 31 -3 26 -16 -4 -10 -1 -14 6
-12 16 6 18 30 3 40 -15 11 -53 10 -60 -2z"/>
<path d="M2178 2643 c-20 -2 -42 -11 -48 -19 -11 -12 -6 -14 27 -14 46 0 57
-8 42 -26 -17 -20 6 -25 79 -16 69 8 87 25 32 30 -20 2 -43 13 -57 28 -12 13
-26 23 -30 22 -4 -1 -25 -3 -45 -5z"/>
<path d="M2310 2635 c-10 -12 -10 -15 4 -15 9 0 16 7 16 15 0 8 -2 15 -4 15
-2 0 -9 -7 -16 -15z"/>
<path d="M1940 2631 c-21 -6 -17 -8 25 -13 54 -7 68 -2 45 12 -17 11 -34 11
-70 1z"/>
<path d="M739 2604 c-6 -8 -9 -17 -6 -20 8 -8 47 5 47 16 0 15 -29 19 -41 4z"/>
<path d="M1285 2600 c3 -5 13 -10 21 -10 8 0 14 5 14 10 0 6 -9 10 -21 10 -11
0 -17 -4 -14 -10z"/>
<path d="M5 2570 c-4 -6 10 -10 34 -10 23 0 41 5 41 10 0 6 -15 10 -34 10 -19
0 -38 -4 -41 -10z"/>
<path d="M1245 2560 c3 -5 13 -10 21 -10 8 0 12 5 9 10 -3 6 -13 10 -21 10 -8
0 -12 -4 -9 -10z"/>
<path d="M6815 2561 c-81 -7 -74 -20 13 -28 63 -6 123 6 130 25 4 13 -16 13
-143 3z"/>
<path d="M1831 2541 c-19 -12 4 -24 30 -16 17 6 19 9 8 16 -17 11 -21 11 -38
0z"/>
<path d="M2291 2541 c-21 -13 2 -21 45 -14 31 5 34 8 19 14 -27 10 -47 10 -64
0z"/>
<path d="M2046 2505 c-53 -18 -56 -25 -10 -25 42 1 85 24 61 33 -7 3 -30 -1
-51 -8z"/>
<path d="M582 2463 c-26 -10 2 -23 53 -23 59 0 88 8 79 21 -5 9 -110 11 -132
2z"/>
<path d="M6445 2460 c3 -5 15 -10 25 -10 10 0 22 5 25 10 4 6 -7 10 -25 10
-18 0 -29 -4 -25 -10z"/>
<path d="M2330 2450 c0 -5 5 -10 10 -10 6 0 10 5 10 10 0 6 -4 10 -10 10 -5 0
-10 -4 -10 -10z"/>
<path d="M7000 2440 c8 -5 47 -9 85 -9 48 0 64 3 50 9 -29 12 -154 12 -135 0z"/>
<path d="M1512 2419 c2 -6 7 -10 11 -10 4 1 14 1 22 1 8 0 15 5 15 10 0 6 -12
10 -26 10 -14 0 -24 -5 -22 -11z"/>
<path d="M6133 2413 c-13 -2 -23 -8 -23 -12 0 -14 72 -21 94 -9 20 11 20 11 1
19 -22 8 -38 9 -72 2z"/>
<path d="M828 2403 c7 -3 16 -2 19 1 4 3 -2 6 -13 5 -11 0 -14 -3 -6 -6z"/>
<path d="M1993 2373 c-34 -13 -5 -23 71 -23 80 0 115 11 80 24 -18 7 -133 7
-151 -1z"/>
<path d="M52 2353 c-28 -2 -52 -8 -52 -14 0 -10 102 -12 138 -3 31 9 28 24 -5
22 -16 -1 -52 -3 -81 -5z"/>
<path d="M1306 2351 c-9 -14 5 -18 39 -10 17 3 22 7 13 8 -9 0 -23 4 -31 7 -8
3 -18 1 -21 -5z"/>
<path d="M1440 2352 c0 -10 47 -22 87 -22 15 0 23 5 21 13 -5 14 -108 23 -108
9z"/>
<path d="M2248 2353 c7 -3 16 -2 19 1 4 3 -2 6 -13 5 -11 0 -14 -3 -6 -6z"/>
<path d="M6980 2340 c0 -5 4 -10 9 -10 6 0 13 5 16 10 3 6 -1 10 -9 10 -9 0
-16 -4 -16 -10z"/>
<path d="M1710 2316 c0 -24 17 -28 23 -6 3 13 0 20 -9 20 -8 0 -14 -6 -14 -14z"/>
<path d="M7246 2321 c-8 -12 20 -22 39 -15 19 8 9 24 -15 24 -10 0 -21 -4 -24
-9z"/>
<path d="M2180 2310 c-14 -4 -18 -9 -10 -10 23 -3 72 -3 95 0 17 2 17 3 -5 10
-14 4 -32 8 -40 8 -8 0 -26 -4 -40 -8z"/>
<path d="M1818 2293 c7 -3 16 -2 19 1 4 3 -2 6 -13 5 -11 0 -14 -3 -6 -6z"/>
<path d="M2560 2290 c0 -5 6 -10 14 -10 8 0 18 5 21 10 3 6 -3 10 -14 10 -12
0 -21 -4 -21 -10z"/>
<path d="M468 2283 c-80 -7 -54 -20 55 -27 56 -3 141 -9 190 -12 59 -4 87 -3
87 4 0 7 -13 9 -34 5 -25 -4 -40 -1 -51 11 -11 11 -34 16 -73 16 -31 0 -73 2
-92 4 -19 2 -56 1 -82 -1z"/>
<path d="M1245 2280 c3 -5 13 -10 21 -10 8 0 14 5 14 10 0 6 -9 10 -21 10 -11
0 -17 -4 -14 -10z"/>
<path d="M6745 2277 c-16 -12 -8 -15 60 -20 43 -4 80 -5 82 -3 2 2 -3 11 -12
20 -20 20 -103 22 -130 3z"/>
<path d="M2060 2263 c-111 -12 -97 -33 23 -33 62 0 77 -3 77 -15 0 -12 16 -15
80 -15 44 0 80 4 80 9 0 4 -32 11 -72 15 -40 3 -79 13 -87 20 -20 18 -55 24
-101 19z"/>
<path d="M0 2225 c0 -13 4 -14 23 -4 33 17 33 19 4 19 -18 0 -27 -5 -27 -15z"/>
<path d="M1168 2233 c6 -2 18 -2 25 0 6 3 1 5 -13 5 -14 0 -19 -2 -12 -5z"/>
<path d="M2658 2213 c7 -3 16 -2 19 1 4 3 -2 6 -13 5 -11 0 -14 -3 -6 -6z"/>
<path d="M6940 2200 c0 -5 5 -10 10 -10 6 0 10 5 10 10 0 6 -4 10 -10 10 -5 0
-10 -4 -10 -10z"/>
<path d="M1305 2180 c3 -5 31 -10 61 -10 30 0 54 5 54 10 0 6 -27 10 -61 10
-37 0 -58 -4 -54 -10z"/>
<path d="M2745 2179 c-5 -6 9 -9 40 -8 60 4 70 19 11 19 -25 0 -48 -5 -51 -11z"/>
<path d="M2455 2170 c-34 -13 63 -23 120 -12 38 8 43 10 20 11 -16 1 -50 4
-75 6 -25 1 -54 0 -65 -5z"/>
<path d="M2123 2163 c9 -2 23 -2 30 0 6 3 -1 5 -18 5 -16 0 -22 -2 -12 -5z"/>
<path d="M1955 2140 c-11 -4 -97 -8 -191 -9 -94 0 -178 -3 -187 -7 -9 -3 -17
-15 -17 -26 0 -18 6 -19 105 -16 98 3 104 2 107 -17 4 -26 22 -26 26 1 2 17
11 21 45 23 36 1 85 9 230 38 15 3 27 9 27 14 0 11 -118 11 -145 -1z"/>
<path d="M900 2133 c-25 -2 -49 -9 -55 -14 -6 -7 30 -10 105 -11 440 -3 457
-2 436 19 -8 9 -413 13 -486 6z"/>
<path d="M7075 2130 c3 -5 16 -10 28 -9 21 0 21 1 2 9 -28 12 -37 12 -30 0z"/>
<path d="M2799 2124 c-6 -18 -320 -35 -389 -22 -52 10 -180 6 -264 -8 -26 -5
-40 -13 -44 -26 -3 -14 -14 -18 -49 -18 -58 0 -134 -20 -126 -32 4 -7 42 -8
107 -4 134 9 166 15 160 31 -4 9 21 14 98 19 125 8 82 8 336 0 l212 -7 0 27
c0 16 -6 26 -14 26 -8 0 -16 6 -18 13 -3 8 -6 9 -9 1z"/>
<path d="M110 2087 c-31 -8 -32 -10 -16 -19 13 -8 33 -8 65 0 43 10 197 1 244
-14 9 -3 96 -7 192 -9 132 -3 181 0 201 10 19 10 22 15 12 21 -7 5 -123 10
-258 11 -135 1 -281 4 -325 6 -44 2 -96 -1 -115 -6z"/>
<path d="M908 2088 c-16 -5 -28 -14 -28 -19 0 -5 12 -11 28 -15 15 -3 34 -8
43 -10 24 -7 48 6 42 22 -3 8 -11 14 -19 14 -8 0 -14 5 -14 10 0 12 -16 12
-52 -2z"/>
<path d="M30 2060 c0 -5 7 -7 15 -4 8 4 15 8 15 10 0 2 -7 4 -15 4 -8 0 -15
-4 -15 -10z"/>
<path d="M1142 2063 c-6 -2 -10 -9 -6 -14 7 -13 341 -12 349 1 4 6 -16 10 -52
11 -32 1 -107 2 -168 4 -60 2 -116 1 -123 -2z"/>
<path d="M2271 2042 c-21 -15 27 -42 75 -42 65 0 164 12 164 20 0 7 -21 10
-165 25 -33 3 -66 2 -74 -3z"/>
<path d="M2540 2020 c0 -5 7 -10 16 -10 8 0 12 5 9 10 -3 6 -10 10 -16 10 -5
0 -9 -4 -9 -10z"/>
<path d="M2673 2024 c-23 -10 -14 -24 15 -23 30 0 77 17 52 18 -8 1 -24 3 -35
6 -11 2 -26 2 -32 -1z"/>
<path d="M728 1995 c-2 -2 -157 -6 -345 -9 -335 -6 -452 -16 -333 -30 80 -9
513 -12 741 -5 204 6 276 1 272 -19 -3 -12 9 -13 132 -17 48 -1 300 13 335 19
108 19 150 29 150 36 0 13 -179 23 -250 14 -109 -14 -485 -8 -662 10 -20 2
-38 2 -40 1z"/>
<path d="M2213 1973 c15 -2 37 -2 50 0 12 2 0 4 -28 4 -27 0 -38 -2 -22 -4z"/>
<path d="M5680 1915 c-16 -19 0 -19 26 0 16 12 16 14 3 15 -9 0 -22 -7 -29
-15z"/>
<path d="M1455 1900 c-18 -6 -18 -7 0 -14 17 -6 16 -8 -8 -21 -15 -7 -39 -16
-54 -18 -16 -2 29 -5 99 -6 124 -1 158 3 158 19 0 7 -64 19 -117 21 -13 1 -21
5 -18 9 7 11 -37 18 -60 10z m12 -46 c-3 -3 -12 -4 -19 -1 -8 3 -5 6 6 6 11 1
17 -2 13 -5z"/>
<path d="M2050 1903 c-14 -2 -30 -10 -35 -16 -22 -26 -55 -35 -151 -42 -54 -4
-108 -11 -119 -15 -36 -14 112 -23 209 -14 136 13 312 10 386 -6 45 -11 124
-15 258 -15 182 0 194 1 208 20 8 11 13 29 12 40 -3 19 -13 20 -198 26 -107 4
-219 12 -249 18 -51 10 -268 13 -321 4z"/>
<path d="M210 1881 c8 -4 38 -5 65 -1 l50 7 -65 1 c-39 1 -59 -2 -50 -7z"/>
<path d="M445 1880 c28 -12 125 -12 125 0 0 6 -30 10 -72 9 -50 0 -67 -3 -53
-9z"/>
<path d="M8 1873 c7 -3 16 -2 19 1 4 3 -2 6 -13 5 -11 0 -14 -3 -6 -6z"/>
<path d="M605 1850 c-4 -6 34 -10 107 -9 87 1 104 3 73 10 -57 11 -173 11
-180 -1z"/>
<path d="M900 1844 c0 -9 71 -35 81 -28 5 3 17 0 25 -7 19 -16 156 -25 179
-11 14 7 -1 11 -62 17 -45 4 -93 13 -108 21 -26 13 -115 20 -115 8z"/>
<path d="M13 1833 c9 -2 23 -2 30 0 6 3 -1 5 -18 5 -17 0 -22 -2 -12 -5z"/>
<path d="M1305 1802 c-18 -8 -17 -9 6 -15 14 -4 57 -6 95 -6 38 0 114 -5 169
-11 114 -12 336 -12 314 0 -19 11 -338 35 -414 31 -22 -1 -65 0 -95 3 -30 3
-64 2 -75 -2z"/>
<path d="M320 1780 c0 -5 12 -10 26 -10 14 0 23 4 19 10 -3 6 -15 10 -26 10
-10 0 -19 -4 -19 -10z"/>
<path d="M1953 1783 c-22 -8 -14 -22 20 -32 30 -9 29 -9 -20 -10 -28 -1 -58
-4 -67 -7 -25 -9 -19 -24 9 -24 14 0 25 -4 25 -10 0 -5 -8 -10 -17 -10 -17 -1
-17 -1 0 -11 22 -13 206 -1 185 12 -8 6 3 9 32 9 34 0 41 -3 30 -11 -11 -7 0
-8 38 -4 42 6 52 4 52 -8 0 -16 -19 -15 305 -16 120 0 223 3 228 8 6 6 7 17 3
27 -5 14 -17 16 -79 11 -46 -3 -87 0 -112 8 -32 10 -112 24 -162 27 -5 0 -19
5 -33 11 -14 6 -54 11 -90 12 -36 1 -85 7 -110 13 -45 11 -214 15 -237 5z m40
-100 c-7 -2 -19 -2 -25 0 -7 3 -2 5 12 5 14 0 19 -2 13 -5z"/>
<path d="M795 1763 c-105 -12 -117 -15 -107 -25 16 -16 352 6 352 23 0 9 -180
10 -245 2z"/>
<path d="M1068 1763 c12 -2 30 -2 40 0 9 3 -1 5 -23 4 -22 0 -30 -2 -17 -4z"/>
<path d="M2765 1750 c3 -5 12 -10 20 -10 8 0 17 5 20 10 4 6 -5 10 -20 10 -15
0 -24 -4 -20 -10z"/>
<path d="M1005 1710 c-38 -5 -81 -13 -95 -18 -24 -10 -23 -11 13 -11 27 -1 37
-5 37 -17 0 -13 -6 -15 -27 -9 -16 3 -69 8 -120 10 -90 4 -107 -1 -108 -30 0
-5 -31 -13 -70 -16 -154 -15 -275 -21 -275 -16 0 13 66 37 104 37 30 1 37 3
25 10 -9 5 -52 8 -95 6 -43 -2 -150 -4 -236 -5 l-158 -1 0 -54 0 -54 68 -13
c41 -7 181 -13 364 -15 181 -2 313 -7 335 -14 50 -15 588 -34 985 -34 174 -1
320 -4 324 -8 4 -5 1 -8 -8 -8 -8 0 -24 -10 -36 -22 -19 -21 -31 -23 -149 -26
-86 -2 -123 0 -113 7 8 5 11 13 8 17 -10 9 -238 8 -280 -2 l-33 -8 40 -12 c39
-12 38 -12 -44 -13 -73 -1 -82 1 -71 14 11 13 5 15 -46 14 l-59 -1 40 -13 c97
-30 -368 -31 -575 0 -119 17 -416 38 -450 31 -14 -2 -87 -5 -162 -5 l-138 -1
0 -33 0 -33 118 12 c64 7 173 13 242 13 114 1 130 -2 180 -25 46 -21 75 -26
178 -31 67 -3 122 -9 122 -13 0 -10 -38 -20 -80 -20 -19 0 -55 -6 -80 -14
l-45 -14 45 -5 c113 -15 160 -16 189 -6 24 8 84 8 229 -1 288 -18 381 -20 388
-9 3 6 31 9 63 8 63 -2 151 10 151 20 0 10 -396 34 -497 31 -164 -5 -319 0
-301 11 26 15 848 0 1168 -22 85 -6 163 -11 173 -11 9 1 17 -3 17 -9 0 -5 4
-9 8 -9 11 0 89 53 126 85 16 14 35 25 43 25 7 0 13 5 13 10 0 13 -13 13 -27
-1 -12 -12 -53 -3 -53 11 0 5 27 8 60 6 33 -2 60 0 60 5 0 5 7 9 16 9 9 0 12
5 8 12 -4 7 -3 8 5 4 6 -4 17 -3 24 2 7 5 32 14 57 20 52 12 119 29 171 42 27
7 35 15 34 30 -1 11 -4 22 -7 25 -6 6 -120 12 -298 15 -79 2 -96 4 -70 10 52
12 252 19 301 10 43 -8 99 4 85 18 -4 4 -130 7 -279 8 -150 0 -342 5 -427 12
-156 11 -185 7 -174 -23 5 -12 -21 -14 -150 -12 -91 1 -143 5 -124 9 18 4 52
7 76 6 23 -1 48 5 55 12 10 10 -1 11 -58 6 -38 -4 -104 -8 -145 -10 -41 -2
-90 -7 -108 -11 -41 -9 -242 4 -242 16 0 4 7 6 15 3 18 -7 47 14 39 27 -3 5
-32 9 -65 9 -44 0 -61 -4 -65 -15 -7 -17 -41 -20 -46 -5 -2 6 -24 12 -50 13
-62 4 -74 17 -17 19 51 1 58 2 199 12 121 9 152 14 144 27 -6 11 -289 10 -389
-1z"/>
<path d="M1538 1687 c12 -7 20 -16 17 -19 -10 -10 284 1 302 11 12 6 3 10 -33
14 -44 6 -177 3 -214 -4 -8 -1 -33 1 -55 5 -36 6 -38 5 -17 -7z"/>
<path d="M3855 1550 c-3 -5 -1 -10 4 -10 6 0 11 5 11 10 0 6 -2 10 -4 10 -3 0
-8 -4 -11 -10z"/>
<path d="M3193 1505 c3 -7 0 -18 -6 -24 -8 -8 -8 -11 1 -11 7 0 12 5 12 10 0
14 28 12 33 -2 2 -7 8 -10 12 -6 11 10 -11 35 -36 41 -14 4 -19 2 -16 -8z"/>
<path d="M0 1496 c0 -12 10 -16 38 -16 20 0 79 -2 130 -5 50 -2 92 0 92 5 0
13 -26 18 -147 25 -99 6 -113 5 -113 -9z"/>
<path d="M3250 1500 c0 -5 7 -10 16 -10 8 0 12 5 9 10 -3 6 -10 10 -16 10 -5
0 -9 -4 -9 -10z"/>
<path d="M393 1485 c-15 -17 8 -21 202 -35 83 -6 164 -16 180 -21 49 -16 254
-23 330 -11 45 7 84 8 110 2 50 -11 71 4 29 22 -20 8 -101 12 -264 13 -188 1
-248 4 -302 18 -38 10 -79 15 -93 11 -14 -3 -25 -2 -25 2 0 15 -154 13 -167
-1z"/>
<path d="M307 1484 c-11 -12 3 -24 28 -24 13 0 26 4 29 9 10 15 -43 29 -57 15z"/>
<path d="M120 1350 c-14 -3 -46 -5 -72 -5 -40 1 -48 -2 -48 -16 0 -10 9 -19
22 -22 l23 -4 -22 -2 c-23 -1 -23 -2 -23 -171 0 -131 3 -170 13 -170 7 0 51
-5 97 -11 47 -6 220 -12 384 -13 229 -1 300 -4 303 -13 7 -20 -34 -30 -163
-43 -137 -13 -168 -17 -209 -29 -16 -5 -88 -12 -160 -15 -72 -4 -160 -9 -197
-12 l-68 -7 0 -52 0 -53 244 -7 c325 -10 514 8 490 46 -7 12 39 19 174 26 72
3 132 10 132 15 0 4 -6 8 -12 8 -9 0 -8 3 2 8 45 24 723 -3 741 -29 3 -5 68
55 144 134 240 245 262 270 238 262 -26 -7 -66 2 -58 15 3 4 14 6 24 3 10 -3
21 0 25 5 6 10 -66 32 -108 32 -13 0 -37 -5 -53 -11 -22 -8 -24 -12 -13 -19 8
-6 25 -10 38 -10 13 0 20 -4 17 -10 -3 -5 -34 -10 -68 -10 -47 0 -58 3 -49 12
21 21 13 28 -27 28 -45 0 -60 -14 -34 -29 22 -13 -76 -14 -147 -2 -39 7 -42 9
-20 14 14 4 39 8 55 10 17 2 -7 5 -52 6 -64 1 -83 -2 -83 -13 0 -10 -25 -9
-129 10 -180 32 -358 46 -492 40 -63 -3 -173 -8 -245 -12 -136 -7 -258 7 -279
31 -15 18 -107 35 -186 35 -77 0 -97 19 -21 21 124 3 127 4 127 19 0 12 -20
15 -115 16 -64 0 -127 -2 -140 -6z m760 -270 c0 -6 -11 -8 -27 -4 -40 10 -41
14 -5 14 18 0 32 -5 32 -10z m-449 -22 c3 -5 9 -9 13 -8 4 1 12 -1 19 -4 6 -4
-4 -4 -23 -1 -19 3 -42 13 -50 21 -14 15 -13 15 10 9 14 -4 28 -12 31 -17z"/>
<path d="M3490 1346 c0 -8 -6 -16 -12 -19 -7 -2 -10 -8 -5 -12 4 -5 14 0 22
11 17 23 19 34 5 34 -5 0 -10 -6 -10 -14z"/>
<path d="M3590 1341 c0 -6 4 -13 10 -16 6 -3 7 1 4 9 -7 18 -14 21 -14 7z"/>
<path d="M3567 1306 c-4 -10 -5 -21 -2 -24 9 -9 17 6 13 25 -3 17 -4 17 -11
-1z"/>
<path d="M2200 1233 c-24 -10 -41 -31 -30 -38 9 -6 70 30 70 41 0 5 -21 4 -40
-3z"/>
<path d="M2767 776 c-53 -71 -80 -114 -107 -169 -13 -26 -27 -47 -31 -47 -3 0
-9 -9 -12 -20 -5 -18 0 -20 53 -20 l58 0 27 88 c15 48 34 105 42 128 8 23 13
52 11 66 -3 24 -6 22 -41 -26z"/>
<path d="M986 752 c-19 -31 533 -66 637 -40 97 24 46 33 -204 35 -134 0 -285
4 -335 8 -57 4 -94 3 -98 -3z"/>
<path d="M3815 728 c-8 -21 -31 -24 -39 -5 -3 8 -9 7 -20 -7 -22 -27 -12 -35
30 -26 43 10 47 13 41 37 -4 17 -4 17 -12 1z"/>
<path d="M3670 698 c0 -9 -8 -18 -17 -20 -10 -2 -13 -6 -8 -10 17 -10 45 16
34 33 -7 12 -9 11 -9 -3z"/>
<path d="M1689 696 c-2 -2 -147 -7 -323 -10 -301 -7 -401 -17 -352 -35 19 -7
19 -8 1 -14 -34 -13 -200 -27 -315 -25 -94 0 -106 2 -65 8 28 5 82 9 120 9 65
1 107 12 94 25 -17 17 -152 25 -482 28 l-367 4 0 -28 c0 -32 1 -32 125 -29 44
1 87 -3 95 -8 11 -8 -19 -11 -102 -11 l-118 0 0 -254 0 -255 53 -6 c92 -12
131 -65 48 -65 -51 0 -101 -10 -101 -21 0 -5 248 -9 563 -9 l562 0 23 44 c13
24 46 70 73 102 28 33 75 93 104 134 30 41 86 107 124 145 l71 70 -47 12 c-25
6 -73 14 -107 17 -64 5 -216 32 -223 40 -9 9 8 26 25 26 35 0 347 -65 353 -73
7 -10 164 134 180 165 8 16 0 25 -12 14z m-1256 -83 c-24 -2 -62 -2 -85 0 -24
2 -5 4 42 4 47 0 66 -2 43 -4z m115 0 c-10 -2 -26 -2 -35 0 -10 3 -2 5 17 5
19 0 27 -2 18 -5z"/>
<path d="M3700 690 c0 -5 7 -10 15 -10 8 0 15 5 15 10 0 6 -7 10 -15 10 -8 0
-15 -4 -15 -10z"/>
<path d="M3608 684 c-3 -3 -21 -5 -39 -5 -32 -1 -53 -6 -104 -25 -11 -4 -25
-6 -32 -5 -6 1 -14 -3 -18 -9 -3 -5 -17 -10 -30 -10 -18 0 -23 -4 -19 -15 4
-8 2 -15 -4 -15 -6 0 -12 5 -14 12 -3 8 -9 8 -24 0 -20 -11 -19 -12 26 -25 8
-2 -15 -4 -51 -4 -52 1 -78 -5 -120 -25 -60 -29 -145 -52 -160 -43 -5 4 -9 -1
-9 -10 0 -12 -4 -14 -19 -5 -26 13 -31 13 -31 -5 0 -11 -7 -14 -24 -9 -13 3
-27 1 -30 -5 -4 -6 -21 -8 -39 -4 -31 5 -31 5 -12 -10 20 -16 20 -16 -2 -17
-13 0 -23 5 -23 11 0 7 -11 9 -32 5 -94 -19 -200 -37 -230 -39 -28 -2 -21 -11
25 -30 23 -10 56 -25 72 -33 45 -21 95 -29 95 -14 0 8 8 10 25 6 16 -4 34 0
50 10 13 8 34 17 47 18 49 6 132 39 143 56 4 6 11 8 16 5 5 -4 12 1 15 9 4 11
19 16 44 16 22 0 41 4 45 10 3 5 13 6 21 3 8 -3 25 -1 37 5 12 6 51 21 87 33
58 19 111 41 236 100 22 10 50 19 63 19 12 0 20 4 17 9 -3 5 1 11 9 15 8 3 15
10 15 16 0 11 -13 14 -22 4z"/>
<path d="M2631 594 c0 -11 3 -14 6 -6 3 7 2 16 -1 19 -3 4 -6 -2 -5 -13z"/>
<path d="M2590 573 c0 -6 -3 -18 -6 -27 -3 -9 -2 -16 4 -16 15 0 24 32 12 44
-7 7 -10 7 -10 -1z"/>
<path d="M5740 428 c0 -10 9 -9 35 2 17 8 16 8 -7 7 -16 -1 -28 -5 -28 -9z"/>
<path d="M5841 424 c0 -11 3 -14 6 -6 3 7 2 16 -1 19 -3 4 -6 -2 -5 -13z"/>
<path d="M3947 411 c-17 -6 -17 -8 -4 -19 16 -14 67 -6 67 9 0 5 -4 9 -9 9 -5
0 -15 2 -23 4 -7 3 -21 1 -31 -3z"/>
<path d="M3560 400 c0 -6 -14 -19 -31 -29 -19 -11 -26 -20 -18 -23 7 -2 23 6
35 19 12 13 27 23 33 23 7 0 9 5 6 10 -8 13 -25 13 -25 0z"/>
<path d="M5805 400 c-3 -5 1 -10 9 -10 9 0 16 5 16 10 0 6 -4 10 -9 10 -6 0
-13 -4 -16 -10z"/>
<path d="M3910 391 c0 -7 -6 -11 -14 -8 -8 3 -22 -3 -31 -13 -9 -10 -23 -16
-30 -14 -7 3 -16 0 -20 -6 -4 -6 -18 -15 -31 -20 -13 -5 -24 -16 -24 -25 0 -8
-7 -15 -15 -15 -9 0 -18 -7 -21 -15 -6 -14 -8 -14 -18 0 -10 14 -13 14 -31 -3
-11 -10 -28 -21 -37 -25 -10 -3 -18 -11 -18 -16 0 -5 -7 -12 -16 -15 -8 -3
-12 -2 -9 4 12 20 -11 10 -40 -17 -16 -16 -33 -27 -36 -26 -4 1 -9 -11 -11
-27 -3 -21 0 -30 9 -30 7 0 13 4 13 9 0 5 14 12 31 16 30 7 30 7 12 27 -18 20
-17 20 12 18 44 -3 59 -1 51 7 -3 4 17 16 46 28 66 26 135 68 120 73 -19 6
-14 23 6 21 31 -3 43 1 37 11 -4 6 7 10 25 10 18 0 29 4 25 10 -3 6 3 10 14
10 23 0 26 7 11 30 -7 12 -10 12 -10 1z"/>
<path d="M4978 393 c7 -3 16 -2 19 1 4 3 -2 6 -13 5 -11 0 -14 -3 -6 -6z"/>
<path d="M5760 390 c0 -5 4 -10 9 -10 6 0 13 5 16 10 3 6 -1 10 -9 10 -9 0
-16 -4 -16 -10z"/>
<path d="M5810 360 c0 -5 5 -10 10 -10 6 0 10 5 10 10 0 6 -4 10 -10 10 -5 0
-10 -4 -10 -10z"/>
<path d="M3460 331 c0 -5 -9 -11 -21 -14 -12 -3 -18 -10 -14 -17 5 -8 14 -7
31 4 13 9 31 16 41 17 16 0 16 1 -2 9 -27 11 -35 12 -35 1z"/>
<path d="M5780 210 c0 -5 5 -10 10 -10 6 0 10 5 10 10 0 6 -4 10 -10 10 -5 0
-10 -4 -10 -10z"/>
<path d="M3466 142 c-3 -6 -1 -14 5 -17 15 -10 25 3 12 16 -7 7 -13 7 -17 1z"/>
<path d="M5985 130 c-3 -5 -4 -10 -1 -10 2 0 12 -3 20 -6 12 -5 15 -2 10 10
-7 18 -20 21 -29 6z"/>
<path d="M3424 109 c-3 -5 6 -9 20 -9 31 0 34 6 6 13 -11 3 -23 1 -26 -4z"/>
<path d="M5933 101 c1 -12 5 -21 11 -21 9 0 35 -30 36 -42 0 -5 -4 -8 -10 -8
-5 0 -10 7 -10 15 0 8 -5 15 -11 15 -5 0 -7 -5 -4 -10 8 -13 -25 -26 -34 -14
-9 14 -55 18 -46 4 4 -6 1 -17 -5 -25 -10 -12 -10 -15 0 -15 7 0 19 8 27 18
14 16 14 16 9 -1 -5 -15 2 -17 44 -17 42 0 49 3 53 23 l4 22 2 -22 c1 -16 7
-23 21 -23 18 0 19 2 8 22 -14 24 -41 54 -75 82 -21 18 -22 18 -20 -3z"/>
<path d="M6101 103 c8 -10 18 -21 23 -25 5 -3 10 -17 12 -30 4 -34 4 -34 13
-19 7 11 10 9 16 -8 6 -18 14 -21 67 -21 53 0 59 2 48 15 -7 9 -19 14 -26 11
-8 -3 -14 4 -16 17 -2 12 -10 22 -18 23 -30 1 -80 26 -73 37 4 6 -2 8 -15 5
-12 -4 -22 -2 -22 3 0 5 -5 9 -11 9 -8 0 -7 -6 2 -17z"/>
<path d="M6042 80 c14 -22 24 -25 32 -11 3 4 -6 13 -19 19 -23 11 -24 10 -13
-8z"/>
<path d="M0 50 c0 -5 5 -10 10 -10 6 0 10 5 10 10 0 6 -4 10 -10 10 -5 0 -10
-4 -10 -10z"/>
<path d="M5826 35 c4 -8 7 -15 9 -15 2 0 5 7 9 15 3 9 0 15 -9 15 -9 0 -12 -6
-9 -15z"/>
<path d="M6107 19 c12 -12 25 -20 28 -17 3 3 -7 13 -22 23 l-28 17 22 -23z"/>
<path d="M6065 19 c-9 -14 0 -22 18 -17 13 2 13 5 2 15 -10 9 -16 9 -20 2z"/>
</g>
</svg>
